<?xml version="1.0" encoding="UTF-8"?><svg id="Layer_1" xmlns="http://www.w3.org/2000/svg" viewBox="0 0 368.48 102.47"><path d="m76.3,51.64c.47,0,1.56.12,3.3.35.8.13,1.43.2,1.9.2,2.83,0,4.46-2.23,4.89-6.69.23-2.53.35-9.72.35-21.58,0-1.8-.37-3.05-1.1-3.75s-2.06-1.05-4-1.05c-.47,0-1.13.05-2,.15-.67.07-1.25.1-1.75.1-1.13,0-2.05-.31-2.75-.92-.7-.62-1.05-1.42-1.05-2.42,0-1.07.53-2.12,1.6-3.17,1.07-1.05,2.55-1.97,4.45-2.77,9.42-4,19.45-5.99,30.07-5.99,2.9,0,5,.34,6.32,1.02,1.31.68,1.97,1.77,1.97,3.27,0,.87-.22,1.54-.65,2.02-.43.48-1.3,1.01-2.6,1.57-2.06.9-3.25,2-3.55,3.3-.3,1.3-.53,6.36-.7,15.18.27,8.92.42,13.7.45,14.33.03.63.17,1.52.4,2.65.4,1.77,1.15,2.98,2.25,3.65,1.1.67,3.03,1.07,5.79,1.2,3.13.13,4.7,1.42,4.7,3.85s-2.21,4.2-6.64,5c-6.16,1.1-12.49,1.65-18.98,1.65-4.26,0-8.29-.25-12.09-.75-4.76-.67-8.46-1.48-11.09-2.45-2.56-.93-3.85-2.33-3.85-4.2,0-1,.42-1.86,1.25-2.6.83-.73,1.86-1.12,3.1-1.15Z" fill="#a84264"/><path d="m166.88,16.16c2.23,0,5.15.55,8.77,1.66.43.13.78.19,1.04.19.22,0,.87-.19,1.95-.58.35-.13.71-.19,1.1-.19,1.45,0,2.98,1.15,4.59,3.44,1.61,2.29,2.42,4.48,2.42,6.56,0,1.21-.36,2.23-1.09,3.07-.72.83-1.61,1.25-2.64,1.25-.87,0-1.57-.17-2.11-.52s-1.73-1.37-3.57-3.08c-2.6-2.42-5.15-3.64-7.66-3.64-1.21,0-2.18.29-2.91.88s-1.09,1.35-1.09,2.3c0,1.88,1.66,3.3,4.97,4.25,4.48,1.32,7.35,2.28,8.6,2.89,5.52,2.68,8.28,6.63,8.28,11.85,0,4.61-1.88,8.38-5.65,11.3-3.85,2.99-8.88,4.48-15.1,4.48-2.77,0-5.69-.33-8.77-.99-3.07-.66-5.29-1.43-6.66-2.32-1.04-.69-1.97-2.2-2.81-4.53-.83-2.33-1.25-4.59-1.25-6.8,0-1.06.22-1.86.65-2.4.54-.69,1.22-1.04,2.04-1.04s1.61.42,2.37,1.27c.45.48,1.53,2,3.21,4.58.8,1.21,2.07,2.22,3.81,3.02,1.74.8,3.54,1.2,5.41,1.2,1.6,0,2.9-.3,3.89-.89,1-.6,1.49-1.36,1.49-2.29,0-.87-.39-1.61-1.17-2.24-.78-.63-2.05-1.21-3.8-1.75-3.1-.97-5.45-1.87-7.08-2.68-1.62-.81-3.14-1.83-4.54-3.07-3.42-3.03-5.13-6.47-5.13-10.32,0-1.9.44-3.76,1.33-5.57.89-1.81,2.14-3.37,3.77-4.69,3.64-3.05,8.07-4.58,13.31-4.58Z" fill="#a84264"/><path d="m209.34,37.55v10.97c0,1.3.32,2.36.96,3.18.64.82,1.46,1.23,2.45,1.23.84,0,1.96-.39,3.34-1.17.33-.19.65-.29.97-.29.52,0,1,.31,1.43.94.43.63.65,1.31.65,2.05,0,1.34-.74,2.63-2.21,3.86-3.07,2.62-6.8,3.93-11.17,3.93-3.46,0-6.25-.98-8.34-2.94-2.1-1.96-3.15-4.54-3.15-7.74v-15c0-.5-.06-.81-.18-.93-.12-.12-.43-.18-.92-.18h-3.34c-.63,0-1.03-.1-1.2-.31-.17-.21-.26-.69-.26-1.44v-1.43c.02-.65.27-1.12.75-1.43l14.87-9.35c.37-.19.82-.29,1.36-.29h2.63c.54,0,.9.12,1.09.37.18.25.28.74.28,1.48v4.38c0,.65.1,1.07.31,1.27s.64.29,1.32.29h6.01c.8,0,1.32.15,1.56.44.24.29.36.91.36,1.87v1.92c0,1.04-.15,1.76-.45,2.16-.3.4-.86.6-1.66.6h-5.88c-.61,0-1.02.11-1.23.32s-.32.63-.32,1.23Z" fill="#a84264"/><path d="m250.41,46.84h-15.26c-.67,0-1.01.29-1.01.88,0,1.41.76,2.73,2.29,3.98,1.53,1.24,3.17,1.87,4.92,1.87,1.04,0,2.19-.2,3.46-.6,1.27-.4,2.31-.89,3.13-1.48.74-.52,1.32-.78,1.75-.78.56,0,1.11.35,1.66,1.04.54.69.81,1.41.81,2.14,0,1.56-.97,3.06-2.92,4.51-3.44,2.58-7.41,3.86-11.91,3.86s-8.36-1.32-11.43-3.96c-1.49-1.3-2.73-2.87-3.7-4.71-1.28-2.45-1.92-5.02-1.92-7.73,0-3.64,1.1-6.9,3.31-9.8,1.9-2.51,4.33-4.38,7.27-5.62,2.21-.93,4.6-1.4,7.17-1.4,4.11,0,7.61,1.17,10.49,3.51,1.45,1.17,2.62,2.55,3.51,4.16,1.02,1.82,1.53,3.59,1.53,5.32,0,1.41-.29,2.56-.88,3.46-.58.9-1.34,1.35-2.27,1.35Zm-14.41-6.07h3.28c1.38,0,2.08-.64,2.08-1.92,0-1.17-.34-2.12-1.01-2.86s-1.55-1.1-2.63-1.1c-1.21,0-2.17.48-2.86,1.43-.65.89-.97,1.79-.97,2.69,0,.65.16,1.1.47,1.36.31.26.86.39,1.64.39Z" fill="#a84264"/><path d="m271.58,29.21c1.32,0,2.14.11,2.47.34.32.23.49.79.49,1.7,0,.8.26,1.2.78,1.2.22,0,.94-.41,2.18-1.23.93-.63,2.12-1.15,3.55-1.57s2.74-.63,3.91-.63c2.75,0,5.21.95,7.37,2.86,1.64,1.45,2.92,3.28,3.83,5.49.95,2.32,1.43,4.75,1.43,7.3,0,5.45-1.84,9.95-5.52,13.47-2.83,2.75-6.06,4.12-9.67,4.12-1.84,0-3.73-.43-5.68-1.3-.39-.17-.7-.26-.94-.26-.65,0-.97.65-.97,1.95,0,1.71.57,2.94,1.72,3.7,1.06.71,1.69,1.2,1.9,1.45.21.25.31.67.31,1.25,0,1.3-.73,2.3-2.17,3-1.45.7-3.5,1.05-6.14,1.05-4.7,0-8.81-.94-12.34-2.82-1.8-.95-2.69-2.13-2.69-3.54,0-.65.13-1.14.41-1.48.27-.34.79-.69,1.57-1.06,1.12-.52,1.81-1.46,2.06-2.82s.44-5.28.57-11.75c-.15-5.32-.35-8.31-.58-8.96-.09-.22-.21-.36-.37-.42s-.7-.18-1.61-.36c-.69-.13-1.25-.45-1.69-.96-.43-.51-.65-1.12-.65-1.83,0-.87.3-1.63.91-2.29.61-.66,1.59-1.3,2.95-1.93,5.3-2.4,9.51-3.62,12.63-3.67Zm3.21,12.27l-.49,8.93c-.02.37-.03.73-.03,1.07,0,.67.29,1.21.88,1.62.58.41,1.36.62,2.34.62,2.99,0,4.48-2.46,4.48-7.37,0-3.18-.63-5.42-1.88-6.72-.78-.8-1.71-1.2-2.79-1.2-1.54,0-2.37,1.02-2.5,3.05Z" fill="#a84264"/><path d="m1.27,99.13v-22.87c0-.41-.09-.72-.28-.93s-.51-.38-.99-.51v-.63h15.08c3.3,0,5.84.38,7.61,1.13,2.54,1.1,4.41,2.9,5.63,5.43.96,1.98,1.45,4.3,1.45,6.95,0,4.66-1.43,8.21-4.3,10.65-1.2,1.03-2.61,1.77-4.22,2.21s-3.67.66-6.16.66H0v-.63c.48-.13.8-.3.99-.51s.28-.52.28-.93Zm5.9-2.38h7.42c2.37,0,4.14-.32,5.33-.97,2.55-1.39,3.83-4.09,3.83-8.1,0-2.9-.69-5.13-2.06-6.67-.77-.86-1.69-1.47-2.78-1.83-1.08-.36-2.52-.54-4.32-.54h-7.42v18.12Z" fill="#0672a0"/><path d="m40.09,92.1v7.07c0,.41.09.72.28.94.19.22.52.4.99.54v.55h-7.84v-.55c.46-.12.79-.29.98-.51s.29-.54.29-.95v-18.14c0-.41-.09-.72-.28-.93-.19-.21-.51-.39-.99-.53v-.55h14.54c1.89,0,3.33.1,4.32.29s1.87.54,2.65,1.04c1.6,1.04,2.4,2.75,2.4,5.11,0,1.79-.49,3.2-1.48,4.21s-2.57,1.74-4.76,2.19l4.2,5.85c.77,1.08,1.38,1.81,1.83,2.2s.97.63,1.55.74v.55h-9.33v-.55c.69-.18,1.03-.48,1.03-.89,0-.29-.21-.73-.64-1.32l-4.43-6.34h-5.31Zm0-4.02h8c1.21,0,2.11-.13,2.69-.4.82-.36,1.23-1.06,1.23-2.12,0-.94-.29-1.59-.86-1.96-.57-.37-1.59-.55-3.06-.55h-8v5.03Z" fill="#0672a0"/><path d="m68.01,81.05v18.12c0,.41.09.72.28.94s.52.4.99.54v.55h-7.84v-.55c.46-.12.79-.29.98-.51s.29-.54.29-.95v-18.14c0-.41-.09-.72-.28-.93-.19-.21-.51-.39-.99-.53v-.55h7.84v.55c-.48.13-.81.31-.99.52s-.28.53-.28.94Z" fill="#0672a0"/><path d="m84.59,94.19l5.38-11.73c.32-.67.48-1.17.48-1.5,0-.66-.43-1.12-1.29-1.37v-.55h8.57v.55c-.53.17-.91.38-1.15.63s-.54.77-.91,1.54l-7.77,16.34c-.28.58-.42,1.02-.42,1.33,0,.66.44,1.08,1.31,1.25v.54h-8.7v-.54c.86-.17,1.29-.59,1.29-1.25,0-.3-.14-.75-.42-1.33l-7.77-16.34c-.37-.79-.67-1.31-.9-1.55-.23-.24-.62-.45-1.16-.62v-.55h8.89v.55c-.84.26-1.27.72-1.27,1.37,0,.29.17.79.49,1.5l5.34,11.73Z" fill="#0672a0"/><path d="m106.11,81.05v18.12c0,.41.09.72.28.94s.52.4.99.54v.55h-7.84v-.55c.46-.12.79-.29.98-.51s.29-.54.29-.95v-18.14c0-.41-.09-.72-.28-.93-.19-.21-.51-.39-.99-.53v-.55h7.84v.55c-.48.13-.81.31-.99.52s-.28.53-.28.94Z" fill="#0672a0"/><path d="m117.38,86.59v12.58c0,.41.1.72.29.95.19.22.52.4.98.53v.55h-7.37v-.55c.46-.12.79-.29.98-.51s.29-.54.29-.95v-18.14c0-.41-.09-.72-.28-.93-.19-.21-.51-.39-.99-.53v-.55h8.52v.55c-.58.15-.87.4-.87.77,0,.32.21.69.63,1.11l11.9,11.8v-12.22c0-.41-.09-.72-.28-.94-.18-.22-.51-.39-.99-.52v-.55h7.37v.55c-.48.13-.81.31-.99.52-.19.22-.28.53-.28.94v18.12c0,.41.09.72.28.94.18.22.51.4.99.54v.55h-7.94v-.55c.58-.12.87-.36.87-.73,0-.18-.08-.37-.24-.57-.16-.2-.52-.58-1.09-1.16l-11.78-11.61Z" fill="#0672a0"/><path d="m161.44,92.65h-5.05c-.42,0-.74.09-.96.28-.22.18-.39.51-.52.99h-.53v-5.88h.53c.13.47.31.8.52.99.22.19.54.28.96.28h10.55v.57c-.46.13-.79.32-.98.57-.19.25-.29.61-.29,1.07v4.67c0,.41.1.73.29.95.19.22.52.4.98.53v.46c-4.28,2.36-8.54,3.54-12.79,3.54-3.67,0-6.64-.87-8.91-2.59-1.23-.95-2.22-2.12-2.97-3.52-.88-1.66-1.33-3.44-1.33-5.33,0-2.61.81-4.94,2.42-6.97,2.51-3.14,6.22-4.71,11.13-4.71,2.15,0,4.61.48,7.37,1.43,1.1.37,1.74.55,1.92.55.22,0,.49-.11.79-.32l.48.26-2.64,5.58-.47-.24v-.12c0-.49-.49-.99-1.46-1.5-1.81-.96-3.75-1.45-5.82-1.45-2.39,0-4.35.65-5.88,1.96-1.61,1.37-2.41,3.22-2.41,5.54,0,2.18.73,3.92,2.2,5.23,1.5,1.33,3.62,2,6.34,2s4.77-.48,6.55-1.45v-3.39Z" fill="#0672a0"/><path d="m206.41,76.47l-3.23,6.37-.55-.32c.01-.13.02-.24.02-.32,0-.45-.38-.93-1.15-1.45-2.35-1.64-5.11-2.46-8.28-2.46-1.4,0-2.63.17-3.7.51-.78.26-1.41.66-1.89,1.19-.48.53-.72,1.1-.72,1.72,0,1.02.61,1.71,1.84,2.08.63.18,1.99.38,4.08.59l3.11.32c1.85.2,3.34.47,4.49.81,1.14.34,2.16.82,3.04,1.44.9.65,1.61,1.5,2.13,2.55s.78,2.18.78,3.38c0,1.9-.61,3.59-1.84,5.07-1.11,1.35-2.83,2.34-5.17,2.99-1.74.49-3.61.73-5.6.73-3.58,0-7.11-.86-10.59-2.58-.74-.34-1.18-.51-1.33-.51-.17,0-.44.15-.81.44l-.57-.3,2.93-6.63.57.28v.26c0,.59.28,1.14.85,1.64.86.77,2.18,1.43,3.98,1.98,1.79.55,3.5.83,5.11.83,1.76,0,3.25-.3,4.5-.89.69-.33,1.23-.77,1.64-1.31.41-.55.61-1.12.61-1.71,0-.9-.48-1.54-1.45-1.92-.67-.26-2.03-.51-4.08-.73l-3.05-.32c-2.05-.21-3.49-.41-4.34-.6s-1.69-.5-2.53-.92c-1.2-.59-2.15-1.49-2.83-2.68-.62-1.07-.93-2.3-.93-3.69,0-2.29.79-4.17,2.36-5.67,2.06-1.97,5.15-2.95,9.27-2.95,1.73,0,3.34.18,4.83.53s3.35,1,5.58,1.94c.77.31,1.23.46,1.41.46.28,0,.6-.15.97-.46l.55.3Z" fill="#0672a0"/><path d="m231.66,93.25l3.35,4.89-.46.34c-.32-.22-.57-.34-.75-.34-.22,0-.75.24-1.56.73-1.81,1.06-3.41,1.79-4.79,2.2-1.39.41-2.98.61-4.79.61-3.62,0-6.57-.87-8.85-2.59-1.29-.99-2.32-2.23-3.09-3.72-.82-1.61-1.23-3.36-1.23-5.25,0-2.6.75-4.9,2.26-6.89,2.36-3.12,5.99-4.67,10.87-4.67,1.81,0,3.42.21,4.82.61s3.01,1.14,4.8,2.2c.82.49,1.34.73,1.56.73.19,0,.44-.11.75-.34l.46.36-3.35,4.85-.44-.32c.01-.16.03-.26.04-.3.01-.12.02-.2.02-.26,0-.64-.89-1.37-2.67-2.19-1.69-.78-3.39-1.16-5.11-1.16-2.4,0-4.38.63-5.94,1.9-1.78,1.42-2.67,3.25-2.67,5.47s.89,4.07,2.67,5.49c1.57,1.25,3.55,1.88,5.94,1.88,1.87,0,3.74-.47,5.6-1.41,1.45-.74,2.18-1.39,2.18-1.94,0-.03-.02-.21-.06-.55l.44-.34Z" fill="#0672a0"/><path d="m256.41,91.54h-12.4v7.62c0,.41.09.72.28.94.18.22.51.4.99.54v.55h-7.84v-.55c.46-.12.79-.29.98-.51s.29-.54.29-.95v-18.14c0-.41-.09-.72-.28-.93-.18-.21-.51-.39-.99-.53v-.55h7.84v.55c-.48.13-.81.31-.99.52-.19.22-.28.53-.28.94v6.48h12.4v-6.48c0-.41-.09-.72-.27-.93-.18-.21-.51-.39-1-.53v-.55h7.84v.55c-.48.13-.81.31-.99.52-.19.22-.28.53-.28.94v18.12c0,.41.09.72.28.94.18.22.51.4.99.54v.55h-7.84v-.55c.46-.12.79-.29.98-.52s.29-.54.29-.95v-7.64Z" fill="#0672a0"/><path d="m324.14,97.19h12.42c.42,0,.74-.09.95-.27.21-.18.39-.51.53-.99h.54v6.55h-.54c-.13-.48-.31-.81-.52-.99-.22-.19-.54-.28-.96-.28h-18.99v-.55c.46-.12.79-.29.98-.51s.29-.54.29-.95v-18.14c0-.41-.09-.72-.28-.93-.18-.21-.51-.39-.99-.53v-.55h7.84v.55c-.48.13-.81.31-.99.52-.19.22-.28.53-.28.94v16.14Z" fill="#0672a0"/><circle cx="277.48" cy="90.3" r="11.28" fill="none" stroke="#231f20" stroke-miterlimit="10" stroke-width="2"/><circle cx="277.48" cy="90.3" r="2.25" fill="#231f20" stroke="#231f20" stroke-miterlimit="10"/><line x1="277.48" y1="90.3" x2="277.48" y2="79.02" fill="none" stroke="#231f20" stroke-miterlimit="10"/><line x1="277.48" y1="90.3" x2="288.75" y2="90.3" fill="none" stroke="#231f20" stroke-miterlimit="10"/><line x1="277.48" y1="90.3" x2="277.48" y2="101.54" fill="none" stroke="#231f20" stroke-miterlimit="10"/><line x1="277.48" y1="90.3" x2="266.21" y2="90.3" fill="none" stroke="#231f20" stroke-miterlimit="10"/><line x1="277.48" y1="90.3" x2="287.24" y2="84.66" fill="none" stroke="#231f20" stroke-miterlimit="10"/><line x1="277.48" y1="90.3" x2="283.12" y2="80.54" fill="none" stroke="#231f20" stroke-miterlimit="10"/><line x1="287.24" y1="96" x2="277.48" y2="90.37" fill="none" stroke="#231f20" stroke-miterlimit="10"/><line x1="283.12" y1="100.06" x2="277.48" y2="90.3" fill="none" stroke="#231f20" stroke-miterlimit="10"/><line x1="277.48" y1="90.37" x2="267.71" y2="96" fill="none" stroke="#231f20" stroke-miterlimit="10"/><line x1="277.48" y1="90.3" x2="271.84" y2="100.06" fill="none" stroke="#231f20" stroke-miterlimit="10"/><line x1="271.72" y1="80.54" x2="277.36" y2="90.3" fill="none" stroke="#231f20" stroke-miterlimit="10"/><line x1="267.48" y1="84.66" x2="277.25" y2="90.3" fill="none" stroke="#231f20" stroke-miterlimit="10"/><circle cx="302.13" cy="90.3" r="11.28" fill="none" stroke="#231f20" stroke-miterlimit="10" stroke-width="2"/><circle cx="302.13" cy="90.3" r="2.25" fill="#231f20" stroke="#231f20" stroke-miterlimit="10"/><line x1="302.13" y1="90.3" x2="302.13" y2="79.02" fill="none" stroke="#231f20" stroke-miterlimit="10"/><line x1="302.13" y1="90.3" x2="313.41" y2="90.3" fill="none" stroke="#231f20" stroke-miterlimit="10"/><line x1="302.13" y1="90.3" x2="302.13" y2="101.54" fill="none" stroke="#231f20" stroke-miterlimit="10"/><line x1="302.13" y1="90.3" x2="290.86" y2="90.3" fill="none" stroke="#231f20" stroke-miterlimit="10"/><line x1="302.13" y1="90.3" x2="311.89" y2="84.66" fill="none" stroke="#231f20" stroke-miterlimit="10"/><line x1="302.13" y1="90.3" x2="307.77" y2="80.54" fill="none" stroke="#231f20" stroke-miterlimit="10"/><line x1="311.89" y1="96" x2="302.13" y2="90.37" fill="none" stroke="#231f20" stroke-miterlimit="10"/><line x1="307.77" y1="100.06" x2="302.13" y2="90.3" fill="none" stroke="#231f20" stroke-miterlimit="10"/><line x1="302.13" y1="90.37" x2="292.37" y2="96" fill="none" stroke="#231f20" stroke-miterlimit="10"/><line x1="302.13" y1="90.3" x2="296.49" y2="100.06" fill="none" stroke="#231f20" stroke-miterlimit="10"/><line x1="296.37" y1="80.54" x2="302.01" y2="90.3" fill="none" stroke="#231f20" stroke-miterlimit="10"/><line x1="292.13" y1="84.66" x2="301.9" y2="90.3" fill="none" stroke="#231f20" stroke-miterlimit="10"/><path d="m332.87,82.42v3.95c0,.89.08,1.46.23,1.72.19.3.59.46,1.2.46.65,0,1.17-.14,1.55-.43.38-.29.64-.73.79-1.34.09-.37.28-.56.58-.56s.55.14.74.41c.19.27.29.63.29,1.06,0,.71-.26,1.47-.79,2.28-.17.26-.31.43-.44.53-.13.09-.28.14-.46.14l-1.91-.23h-6.01c-.4,0-.67-.05-.83-.14-.23-.13-.35-.33-.35-.59,0-.16.04-.28.12-.36.08-.08.27-.19.56-.33.33-.15.54-.37.63-.65.07-.23.11-.92.11-2.05,0-.53-.01-1.29-.04-2.28-.03-.95-.05-1.67-.05-2.15,0-.46-.04-.77-.11-.94-.07-.17-.22-.29-.45-.37-.38-.13-.62-.24-.72-.32-.18-.14-.27-.31-.27-.49,0-.42.35-.74,1.04-.95.59-.19,1.38-.28,2.37-.28,1.11,0,1.94.06,2.49.17.71.16,1.07.46,1.07.93,0,.19-.05.33-.14.42-.09.09-.33.21-.69.37-.22.1-.36.26-.41.5-.06.24-.09.75-.09,1.54Z" fill="#0672a0"/><path d="m341.35,78.66h4.53c.49-.02.93-.08,1.33-.2.17-.05.32-.07.46-.07.46,0,.92.34,1.35,1.03s.66,1.4.66,2.12c0,.5-.15.86-.46,1.09-.23.17-.5.26-.83.26-.3,0-.57-.08-.79-.25s-.44-.45-.66-.84c-.19-.36-.34-.59-.45-.7-.11-.11-.24-.16-.4-.16-.21,0-.36.09-.46.27-.09.18-.14.47-.14.88v4.82c0,.49.05.85.15,1.07.1.22.3.4.58.52.31.13.52.26.63.37.11.12.17.28.17.49,0,.41-.28.72-.84.92-.56.2-1.42.3-2.58.3-1.42,0-2.48-.12-3.16-.35-.58-.2-.87-.51-.87-.95,0-.23.1-.42.31-.55.05-.03.25-.1.61-.21.22-.06.37-.18.45-.36.08-.18.15-.52.2-1.02.05-.45.09-1.17.13-2.17.04-1,.06-1.87.06-2.6,0-.52-.04-.88-.12-1.1s-.21-.33-.4-.33c-.22,0-.44.16-.65.48-.38.58-.7.97-.95,1.16-.29.22-.58.33-.85.33-.31,0-.56-.12-.77-.35-.2-.23-.3-.53-.3-.89s.08-.75.24-1.17c.16-.43.38-.82.64-1.18.44-.58.87-.88,1.29-.88.12,0,.25.02.4.05.31.06.56.11.76.13.2.02.42.03.68.03Z" fill="#0672a0"/><path d="m353.62,90.4h-.62c-.36,0-.76.02-1.21.05-.28.02-.48.03-.58.03-.38,0-.7-.09-.94-.27-.24-.18-.36-.41-.36-.7,0-.2.05-.36.16-.47.11-.11.28-.2.52-.27.23-.06.38-.15.46-.28.08-.13.14-.38.19-.75.05-.43.09-1.27.12-2.51.04-1.24.06-2.48.06-3.71,0-.48-.04-.8-.11-.96-.08-.16-.25-.29-.52-.39-.4-.15-.59-.4-.59-.77,0-.28.14-.5.41-.66.27-.16.65-.24,1.14-.24.16,0,.35,0,.57,0,.48.02.83.03,1.05.03.82,0,1.75-.03,2.78-.08.22-.01.49-.02.82-.02,1.31,0,2.35.15,3.11.45,1.14.45,1.99,1.2,2.56,2.25.51.93.77,2.04.77,3.32,0,.65-.09,1.3-.28,1.95s-.44,1.21-.76,1.69c-.67.96-1.58,1.64-2.75,2.03-.69.23-1.42.34-2.2.34l-1.04-.03-.89-.03c-.69-.02-1.3-.03-1.83-.03Zm1.81-9.32v6.66c0,.36.08.62.23.77.15.15.41.23.77.23,1.67,0,2.51-1.27,2.51-3.82,0-1.4-.2-2.49-.58-3.27-.43-.85-1.16-1.28-2.18-1.28-.28,0-.47.05-.58.16-.11.11-.17.29-.17.55Z" fill="#0672a0"/><path d="m366.45,86.57c.54,0,1.02.19,1.42.57.41.38.61.88.61,1.49,0,.57-.2,1.05-.61,1.44-.4.38-.87.57-1.42.57s-1.02-.19-1.42-.57c-.41-.39-.61-.88-.61-1.46s.2-1.08.61-1.46c.4-.37.87-.56,1.42-.57Z" fill="#0672a0"/><path d="m126.72,20.9c-.54-.52-1.01-.78-1.4-.78-.22,0-.48.17-.79.51-.31.34-.46.61-.46.82,0,.62.36,1.2,1.09,1.75.73.54,1.65.82,2.76.82.53,0,1.1-.33,1.71-.99s.91-1.37.91-2.12c0-.65-.24-1.34-.73-2.08s-1.86-2.02-4.12-3.84c-.97-.77-1.65-1.42-2.03-1.94-.38-.52-.67-1.12-.88-1.79-.21-.67-.31-1.34-.31-2.01,0-1.21.49-2.34,1.48-3.38.99-1.04,2.19-1.56,3.6-1.56,1.11,0,2.09.27,2.93.81.84.54,1.26,1.27,1.26,2.21,0,.76-.29,1.46-.86,2.11-.58.65-1.23.98-1.96.98-.59,0-1.09-.3-1.5-.9-.4-.6-.61-1.18-.61-1.74,0-.7.4-1.04,1.19-1.04.25,0,.49.04.7.13-.03.05-.08.13-.17.23-.46.51-.68.97-.68,1.38,0,.3.23.55.68.73.46.18.83.27,1.14.27.25,0,.48-.14.68-.41s.3-.53.3-.79c0-.86-.31-1.63-.94-2.3s-1.38-1.02-2.25-1.02c-.81,0-1.49.31-2.03.94-.54.63-.82,1.29-.82,2,0,2.47,1.12,4.55,3.38,6.26,2.39,1.85,3.58,3.66,3.58,5.44,0,1.04-.22,1.93-.65,2.68-.43.75-.95,1.37-1.56,1.86s-1.09.78-1.44.89c-.35.11-.9.16-1.65.16-.8,0-1.48-.39-2.05-1.18-.57-.78-.85-1.62-.85-2.52,0-.64.24-1.23.72-1.74s.99-.78,1.52-.78c.38,0,.71.1,1,.3.28.2.43.46.43.76,0,.27-.11.55-.32.85Z"/><path d="m144.99,5.24c-1.04.19-1.89.33-2.57.41-.68.08-1.66.33-2.95.73-.06.81-.44,2.8-1.12,5.96-.68,3.17-1.02,5.31-1.02,6.42,0,1.44.29,2.55.88,3.32.59.77,1.42,1.16,2.49,1.16.78,0,1.39-.35,1.81-1.05.42-.7.64-1.61.64-2.72,0-.43-.15-.87-.46-1.33-.3-.46-.64-.68-1.01-.68-.33,0-.59.16-.8.47-.2.32-.3.68-.3,1.1,0,.37.17.55.51.55s.59-.27.74-.82l.23.15c0,.39-.11.72-.33.98-.22.26-.46.39-.71.39-.42,0-.81-.14-1.19-.41-.37-.27-.56-.62-.56-1.03,0-.54.24-1.03.71-1.45.47-.42.98-.64,1.53-.64.69,0,1.39.24,2.08.72.69.48,1.03.99,1.03,1.52,0,1.2-.37,2.31-1.1,3.33-.73,1.02-1.58,1.53-2.54,1.53-1.47,0-2.64-.46-3.51-1.38-.87-.92-1.31-2.13-1.31-3.63,0-.75.15-2.75.45-6.02.3-3.27.43-5.17.41-5.7l-3.51,1v-1.04l3.51-.82c.02-.38.04-.82.04-1.33,0-1.5-.11-2.96-.32-4.38L140,0c.04,1.58-.11,3.41-.46,5.48,1.58-.51,2.65-.81,3.21-.92.56-.11,1.21-.27,1.95-.48l.28,1.16Z"/><path d="m125.97,20.9c-.54-.52-1.01-.78-1.4-.78-.22,0-.48.17-.79.51-.31.34-.46.61-.46.82,0,.62.36,1.2,1.09,1.75.73.54,1.65.82,2.76.82.53,0,1.1-.33,1.71-.99s.91-1.37.91-2.12c0-.65-.24-1.34-.73-2.08s-1.86-2.02-4.12-3.84c-.97-.77-1.65-1.42-2.03-1.94-.38-.52-.67-1.12-.88-1.79-.21-.67-.31-1.34-.31-2.01,0-1.21.49-2.34,1.48-3.38.99-1.04,2.19-1.56,3.6-1.56,1.11,0,2.09.27,2.93.81.84.54,1.26,1.27,1.26,2.21,0,.76-.29,1.46-.86,2.11-.58.65-1.23.98-1.96.98-.59,0-1.09-.3-1.5-.9-.4-.6-.61-1.18-.61-1.74,0-.7.4-1.04,1.19-1.04.25,0,.49.04.7.13-.03.05-.08.13-.17.23-.46.51-.68.97-.68,1.38,0,.3.23.55.68.73.46.18.83.27,1.14.27.25,0,.48-.14.68-.41s.3-.53.3-.79c0-.86-.31-1.63-.94-2.3s-1.38-1.02-2.25-1.02c-.81,0-1.49.31-2.03.94-.54.63-.82,1.29-.82,2,0,2.47,1.12,4.55,3.38,6.26,2.39,1.85,3.58,3.66,3.58,5.44,0,1.04-.22,1.93-.65,2.68-.43.75-.95,1.37-1.56,1.86s-1.09.78-1.44.89c-.35.11-.9.16-1.65.16-.8,0-1.48-.39-2.05-1.18-.57-.78-.85-1.62-.85-2.52,0-.64.24-1.23.72-1.74s.99-.78,1.52-.78c.38,0,.71.1,1,.3.28.2.43.46.43.76,0,.27-.11.55-.32.85Z"/><path d="m144.23,5.24c-1.04.19-1.89.33-2.57.41-.68.08-1.66.33-2.95.73-.06.81-.44,2.8-1.12,5.96-.68,3.17-1.02,5.31-1.02,6.42,0,1.44.29,2.55.88,3.32.59.77,1.42,1.16,2.49,1.16.78,0,1.39-.35,1.81-1.05.42-.7.64-1.61.64-2.72,0-.43-.15-.87-.46-1.33-.3-.46-.64-.68-1.01-.68-.33,0-.59.16-.8.47-.2.32-.3.68-.3,1.1,0,.37.17.55.51.55s.59-.27.74-.82l.23.15c0,.39-.11.72-.33.98-.22.26-.46.39-.71.39-.42,0-.81-.14-1.19-.41-.37-.27-.56-.62-.56-1.03,0-.54.24-1.03.71-1.45.47-.42.98-.64,1.53-.64.69,0,1.39.24,2.08.72.69.48,1.03.99,1.03,1.52,0,1.2-.37,2.31-1.1,3.33-.73,1.02-1.58,1.53-2.54,1.53-1.47,0-2.64-.46-3.51-1.38-.87-.92-1.31-2.13-1.31-3.63,0-.75.15-2.75.45-6.02.3-3.27.43-5.17.41-5.7l-3.51,1v-1.04l3.51-.82c.02-.38.04-.82.04-1.33,0-1.5-.11-2.96-.32-4.38L139.24,0c.04,1.58-.11,3.41-.46,5.48,1.58-.51,2.65-.81,3.21-.92.56-.11,1.21-.27,1.95-.48l.28,1.16Z"/><path d="m125.97,20.9c-.54-.52-1.01-.78-1.4-.78-.22,0-.48.17-.79.51-.31.34-.46.61-.46.82,0,.62.36,1.2,1.09,1.75.73.54,1.65.82,2.76.82.53,0,1.1-.33,1.71-.99s.91-1.37.91-2.12c0-.65-.24-1.34-.73-2.08s-1.86-2.02-4.12-3.84c-.97-.77-1.65-1.42-2.03-1.94-.38-.52-.67-1.12-.88-1.79-.21-.67-.31-1.34-.31-2.01,0-1.21.49-2.34,1.48-3.38.99-1.04,2.19-1.56,3.6-1.56,1.11,0,2.09.27,2.93.81.84.54,1.26,1.27,1.26,2.21,0,.76-.29,1.46-.86,2.11-.58.65-1.23.98-1.96.98-.59,0-1.09-.3-1.5-.9-.4-.6-.61-1.18-.61-1.74,0-.7.4-1.04,1.19-1.04.25,0,.49.04.7.13-.03.05-.08.13-.17.23-.46.51-.68.97-.68,1.38,0,.3.23.55.68.73.46.18.83.27,1.14.27.25,0,.48-.14.68-.41s.3-.53.3-.79c0-.86-.31-1.63-.94-2.3s-1.38-1.02-2.25-1.02c-.81,0-1.49.31-2.03.94-.54.63-.82,1.29-.82,2,0,2.47,1.12,4.55,3.38,6.26,2.39,1.85,3.58,3.66,3.58,5.44,0,1.04-.22,1.93-.65,2.68-.43.75-.95,1.37-1.56,1.86s-1.09.78-1.44.89c-.35.11-.9.16-1.65.16-.8,0-1.48-.39-2.05-1.18-.57-.78-.85-1.62-.85-2.52,0-.64.24-1.23.72-1.74s.99-.78,1.52-.78c.38,0,.71.1,1,.3.28.2.43.46.43.76,0,.27-.11.55-.32.85Z"/><path d="m144.23,5.24c-1.04.19-1.89.33-2.57.41-.68.08-1.66.33-2.95.73-.06.81-.44,2.8-1.12,5.96-.68,3.17-1.02,5.31-1.02,6.42,0,1.44.29,2.55.88,3.32.59.77,1.42,1.16,2.49,1.16.78,0,1.39-.35,1.81-1.05.42-.7.64-1.61.64-2.72,0-.43-.15-.87-.46-1.33-.3-.46-.64-.68-1.01-.68-.33,0-.59.16-.8.47-.2.32-.3.68-.3,1.1,0,.37.17.55.51.55s.59-.27.74-.82l.23.15c0,.39-.11.72-.33.98-.22.26-.46.39-.71.39-.42,0-.81-.14-1.19-.41-.37-.27-.56-.62-.56-1.03,0-.54.24-1.03.71-1.45.47-.42.98-.64,1.53-.64.69,0,1.39.24,2.08.72.69.48,1.03.99,1.03,1.52,0,1.2-.37,2.31-1.1,3.33-.73,1.02-1.58,1.53-2.54,1.53-1.47,0-2.64-.46-3.51-1.38-.87-.92-1.31-2.13-1.31-3.63,0-.75.15-2.75.45-6.02.3-3.27.43-5.17.41-5.7l-3.51,1v-1.04l3.51-.82c.02-.38.04-.82.04-1.33,0-1.5-.11-2.96-.32-4.38L139.24,0c.04,1.58-.11,3.41-.46,5.48,1.58-.51,2.65-.81,3.21-.92.56-.11,1.21-.27,1.95-.48l.28,1.16Z"/><path d="m126.97,20.9c-.54-.52-1.01-.78-1.4-.78-.22,0-.48.17-.79.51-.31.34-.46.61-.46.82,0,.62.36,1.2,1.09,1.75.73.54,1.65.82,2.76.82.53,0,1.1-.33,1.71-.99s.91-1.37.91-2.12c0-.65-.24-1.34-.73-2.08s-1.86-2.02-4.12-3.84c-.97-.77-1.65-1.42-2.03-1.94-.38-.52-.67-1.12-.88-1.79-.21-.67-.31-1.34-.31-2.01,0-1.21.49-2.34,1.48-3.38.99-1.04,2.19-1.56,3.6-1.56,1.11,0,2.09.27,2.93.81.84.54,1.26,1.27,1.26,2.21,0,.76-.29,1.46-.86,2.11-.58.65-1.23.98-1.96.98-.59,0-1.09-.3-1.5-.9-.4-.6-.61-1.18-.61-1.74,0-.7.4-1.04,1.19-1.04.25,0,.49.04.7.13-.03.05-.08.13-.17.23-.46.51-.68.97-.68,1.38,0,.3.23.55.68.73.46.18.83.27,1.14.27.25,0,.48-.14.68-.41s.3-.53.3-.79c0-.86-.31-1.63-.94-2.3s-1.38-1.02-2.25-1.02c-.81,0-1.49.31-2.03.94-.54.63-.82,1.29-.82,2,0,2.47,1.12,4.55,3.38,6.26,2.39,1.85,3.58,3.66,3.58,5.44,0,1.04-.22,1.93-.65,2.68-.43.75-.95,1.37-1.56,1.86s-1.09.78-1.44.89c-.35.11-.9.16-1.65.16-.8,0-1.48-.39-2.05-1.18-.57-.78-.85-1.62-.85-2.52,0-.64.24-1.23.72-1.74s.99-.78,1.52-.78c.38,0,.71.1,1,.3.28.2.43.46.43.76,0,.27-.11.55-.32.85Z"/><path d="m145.23,5.24c-1.04.19-1.89.33-2.57.41-.68.08-1.66.33-2.95.73-.06.81-.44,2.8-1.12,5.96-.68,3.17-1.02,5.31-1.02,6.42,0,1.44.29,2.55.88,3.32.59.77,1.42,1.16,2.49,1.16.78,0,1.39-.35,1.81-1.05.42-.7.64-1.61.64-2.72,0-.43-.15-.87-.46-1.33-.3-.46-.64-.68-1.01-.68-.33,0-.59.16-.8.47-.2.32-.3.68-.3,1.1,0,.37.17.55.51.55s.59-.27.74-.82l.23.15c0,.39-.11.72-.33.98-.22.26-.46.39-.71.39-.42,0-.81-.14-1.19-.41-.37-.27-.56-.62-.56-1.03,0-.54.24-1.03.71-1.45.47-.42.98-.64,1.53-.64.69,0,1.39.24,2.08.72.69.48,1.03.99,1.03,1.52,0,1.2-.37,2.31-1.1,3.33-.73,1.02-1.58,1.53-2.54,1.53-1.47,0-2.64-.46-3.51-1.38-.87-.92-1.31-2.13-1.31-3.63,0-.75.15-2.75.45-6.02.3-3.27.43-5.17.41-5.7l-3.51,1v-1.04l3.51-.82c.02-.38.04-.82.04-1.33,0-1.5-.11-2.96-.32-4.38L140.24,0c.04,1.58-.11,3.41-.46,5.48,1.58-.51,2.65-.81,3.21-.92.56-.11,1.21-.27,1.95-.48l.28,1.16Z"/><path d="m126.97,20.9c-.54-.52-1.01-.78-1.4-.78-.22,0-.48.17-.79.51-.31.34-.46.61-.46.82,0,.62.36,1.2,1.09,1.75.73.54,1.65.82,2.76.82.53,0,1.1-.33,1.71-.99s.91-1.37.91-2.12c0-.65-.24-1.34-.73-2.08s-1.86-2.02-4.12-3.84c-.97-.77-1.65-1.42-2.03-1.94-.38-.52-.67-1.12-.88-1.79-.21-.67-.31-1.34-.31-2.01,0-1.21.49-2.34,1.48-3.38.99-1.04,2.19-1.56,3.6-1.56,1.11,0,2.09.27,2.93.81.84.54,1.26,1.27,1.26,2.21,0,.76-.29,1.46-.86,2.11-.58.65-1.23.98-1.96.98-.59,0-1.09-.3-1.5-.9-.4-.6-.61-1.18-.61-1.74,0-.7.4-1.04,1.19-1.04.25,0,.49.04.7.13-.03.05-.08.13-.17.23-.46.51-.68.97-.68,1.38,0,.3.23.55.68.73.46.18.83.27,1.14.27.25,0,.48-.14.68-.41s.3-.53.3-.79c0-.86-.31-1.63-.94-2.3s-1.38-1.02-2.25-1.02c-.81,0-1.49.31-2.03.94-.54.63-.82,1.29-.82,2,0,2.47,1.12,4.55,3.38,6.26,2.39,1.85,3.58,3.66,3.58,5.44,0,1.04-.22,1.93-.65,2.68-.43.75-.95,1.37-1.56,1.86s-1.09.78-1.44.89c-.35.11-.9.16-1.65.16-.8,0-1.48-.39-2.05-1.18-.57-.78-.85-1.62-.85-2.52,0-.64.24-1.23.72-1.74s.99-.78,1.52-.78c.38,0,.71.1,1,.3.28.2.43.46.43.76,0,.27-.11.55-.32.85Z"/><path d="m145.23,5.24c-1.04.19-1.89.33-2.57.41-.68.08-1.66.33-2.95.73-.06.81-.44,2.8-1.12,5.96-.68,3.17-1.02,5.31-1.02,6.42,0,1.44.29,2.55.88,3.32.59.77,1.42,1.16,2.49,1.16.78,0,1.39-.35,1.81-1.05.42-.7.64-1.61.64-2.72,0-.43-.15-.87-.46-1.33-.3-.46-.64-.68-1.01-.68-.33,0-.59.16-.8.47-.2.32-.3.68-.3,1.1,0,.37.17.55.51.55s.59-.27.74-.82l.23.15c0,.39-.11.72-.33.98-.22.26-.46.39-.71.39-.42,0-.81-.14-1.19-.41-.37-.27-.56-.62-.56-1.03,0-.54.24-1.03.71-1.45.47-.42.98-.64,1.53-.64.69,0,1.39.24,2.08.72.69.48,1.03.99,1.03,1.52,0,1.2-.37,2.31-1.1,3.33-.73,1.02-1.58,1.53-2.54,1.53-1.47,0-2.64-.46-3.51-1.38-.87-.92-1.31-2.13-1.31-3.63,0-.75.15-2.75.45-6.02.3-3.27.43-5.17.41-5.7l-3.51,1v-1.04l3.51-.82c.02-.38.04-.82.04-1.33,0-1.5-.11-2.96-.32-4.38L140.24,0c.04,1.58-.11,3.41-.46,5.48,1.58-.51,2.65-.81,3.21-.92.56-.11,1.21-.27,1.95-.48l.28,1.16Z"/><path d="m126.97,20.9c-.54-.52-1.01-.78-1.4-.78-.22,0-.48.17-.79.51-.31.34-.46.61-.46.82,0,.62.36,1.2,1.09,1.75.73.54,1.65.82,2.76.82.53,0,1.1-.33,1.71-.99s.91-1.37.91-2.12c0-.65-.24-1.34-.73-2.08s-1.86-2.02-4.12-3.84c-.97-.77-1.65-1.42-2.03-1.94-.38-.52-.67-1.12-.88-1.79-.21-.67-.31-1.34-.31-2.01,0-1.21.49-2.34,1.48-3.38.99-1.04,2.19-1.56,3.6-1.56,1.11,0,2.09.27,2.93.81.84.54,1.26,1.27,1.26,2.21,0,.76-.29,1.46-.86,2.11-.58.65-1.23.98-1.96.98-.59,0-1.09-.3-1.5-.9-.4-.6-.61-1.18-.61-1.74,0-.7.4-1.04,1.19-1.04.25,0,.49.04.7.13-.03.05-.08.13-.17.23-.46.51-.68.97-.68,1.38,0,.3.23.55.68.73.46.18.83.27,1.14.27.25,0,.48-.14.68-.41s.3-.53.3-.79c0-.86-.31-1.63-.94-2.3s-1.38-1.02-2.25-1.02c-.81,0-1.49.31-2.03.94-.54.63-.82,1.29-.82,2,0,2.47,1.12,4.55,3.38,6.26,2.39,1.85,3.58,3.66,3.58,5.44,0,1.04-.22,1.93-.65,2.68-.43.75-.95,1.37-1.56,1.86s-1.09.78-1.44.89c-.35.11-.9.16-1.65.16-.8,0-1.48-.39-2.05-1.18-.57-.78-.85-1.62-.85-2.52,0-.64.24-1.23.72-1.74s.99-.78,1.52-.78c.38,0,.71.1,1,.3.28.2.43.46.43.76,0,.27-.11.55-.32.85Z"/><path d="m145.23,5.24c-1.04.19-1.89.33-2.57.41-.68.08-1.66.33-2.95.73-.06.81-.44,2.8-1.12,5.96-.68,3.17-1.02,5.31-1.02,6.42,0,1.44.29,2.55.88,3.32.59.77,1.42,1.16,2.49,1.16.78,0,1.39-.35,1.81-1.05.42-.7.64-1.61.64-2.72,0-.43-.15-.87-.46-1.33-.3-.46-.64-.68-1.01-.68-.33,0-.59.16-.8.47-.2.32-.3.68-.3,1.1,0,.37.17.55.51.55s.59-.27.74-.82l.23.15c0,.39-.11.72-.33.98-.22.26-.46.39-.71.39-.42,0-.81-.14-1.19-.41-.37-.27-.56-.62-.56-1.03,0-.54.24-1.03.71-1.45.47-.42.98-.64,1.53-.64.69,0,1.39.24,2.08.72.69.48,1.03.99,1.03,1.52,0,1.2-.37,2.31-1.1,3.33-.73,1.02-1.58,1.53-2.54,1.53-1.47,0-2.64-.46-3.51-1.38-.87-.92-1.31-2.13-1.31-3.63,0-.75.15-2.75.45-6.02.3-3.27.43-5.17.41-5.7l-3.51,1v-1.04l3.51-.82c.02-.38.04-.82.04-1.33,0-1.5-.11-2.96-.32-4.38L140.24,0c.04,1.58-.11,3.41-.46,5.48,1.58-.51,2.65-.81,3.21-.92.56-.11,1.21-.27,1.95-.48l.28,1.16Z"/></svg>