<svg width="120" height="34" viewBox="0 0 120 34" fill="none" xmlns="http://www.w3.org/2000/svg">
<g clip-path="url(#clip0_77_432)">
<path d="M24.8481 16.6576C25.0012 16.6576 25.3561 16.6963 25.9228 16.7705C26.1833 16.8124 26.3885 16.835 26.5416 16.835C27.4632 16.835 27.994 16.1157 28.134 14.677C28.2089 13.8609 28.248 11.5416 28.248 7.71591C28.248 7.13528 28.1275 6.73206 27.8898 6.50626C27.6521 6.28046 27.2189 6.16757 26.5871 6.16757C26.4341 6.16757 26.2191 6.18369 25.9358 6.21595C25.7176 6.23853 25.5287 6.24821 25.3659 6.24821C24.9979 6.24821 24.6983 6.14821 24.4703 5.95144C24.2424 5.75145 24.1284 5.49339 24.1284 5.17082C24.1284 4.82567 24.301 4.48697 24.6495 4.14827C24.9979 3.80957 25.4799 3.5128 26.0987 3.25475C29.1664 1.96446 32.4328 1.32254 35.8913 1.32254C36.8357 1.32254 37.5196 1.43222 37.9495 1.65157C38.3761 1.87091 38.5911 2.22252 38.5911 2.70637C38.5911 2.98701 38.5194 3.20313 38.3794 3.35797C38.2393 3.5128 37.956 3.68377 37.5327 3.86441C36.8618 4.15472 36.4742 4.50955 36.3765 4.92889C36.2789 5.34823 36.2039 6.98044 36.1486 9.82552C36.2365 12.7029 36.2854 14.2448 36.2951 14.448C36.3049 14.6512 36.3505 14.9383 36.4254 15.3028C36.5557 15.8737 36.7999 16.2641 37.1581 16.4802C37.5164 16.6963 38.1449 16.8253 39.0437 16.8673C40.063 16.9092 40.5743 17.3253 40.5743 18.1092C40.5743 18.893 39.8546 19.464 38.4119 19.722C36.4059 20.0768 34.3444 20.2543 32.2309 20.2543C30.8436 20.2543 29.5311 20.1736 28.2936 20.0123C26.7435 19.7962 25.5385 19.5349 24.682 19.222C23.8483 18.922 23.4282 18.4704 23.4282 17.8672C23.4282 17.5447 23.565 17.2672 23.8353 17.0285C24.1056 16.7931 24.441 16.6673 24.8449 16.6576H24.8481Z" fill="white"/>
<path d="M54.3465 5.21275C55.0727 5.21275 56.0237 5.39017 57.2026 5.74822C57.3426 5.79016 57.4566 5.80951 57.5413 5.80951C57.6129 5.80951 57.8246 5.74822 58.1763 5.62242C58.2903 5.58048 58.4075 5.56113 58.5345 5.56113C59.0067 5.56113 59.505 5.93209 60.0293 6.67078C60.5536 7.40946 60.8174 8.1159 60.8174 8.78684C60.8174 9.17716 60.7002 9.50618 60.4625 9.77714C60.228 10.0449 59.9381 10.1804 59.6027 10.1804C59.3194 10.1804 59.0914 10.1255 58.9156 10.0126C58.7397 9.89972 58.3522 9.57069 57.7529 9.0191C56.9062 8.23847 56.0758 7.84494 55.2584 7.84494C54.8643 7.84494 54.5484 7.93848 54.3107 8.1288C54.073 8.31912 53.9557 8.56427 53.9557 8.87071C53.9557 9.47715 54.4963 9.9352 55.5743 10.2416C57.0332 10.6674 57.9679 10.9771 58.375 11.1739C60.1726 12.0384 61.0714 13.3125 61.0714 14.9963C61.0714 16.4834 60.4592 17.6995 59.2315 18.6414C57.9777 19.6059 56.3396 20.0865 54.314 20.0865C53.4119 20.0865 52.4609 19.9801 51.4579 19.7672C50.4581 19.5543 49.7351 19.3059 49.289 19.0188C48.9503 18.7962 48.6474 18.3092 48.3739 17.5576C48.1036 16.806 47.9668 16.077 47.9668 15.3641C47.9668 15.0221 48.0384 14.7641 48.1785 14.5899C48.3543 14.3673 48.5758 14.2544 48.8428 14.2544C49.1099 14.2544 49.3671 14.3899 49.6147 14.6641C49.7612 14.8189 50.1129 15.3092 50.66 16.1415C50.9206 16.5318 51.3341 16.8576 51.9008 17.1156C52.4674 17.3737 53.0536 17.5027 53.6626 17.5027C54.1837 17.5027 54.6071 17.406 54.9295 17.2156C55.2551 17.0221 55.4147 16.7769 55.4147 16.4769C55.4147 16.1963 55.2877 15.9576 55.0337 15.7544C54.7797 15.5512 54.3661 15.3641 53.7962 15.1899C52.7866 14.877 52.0213 14.5867 51.4905 14.3254C50.9629 14.0641 50.4679 13.7351 50.012 13.3351C48.8982 12.3577 48.3413 11.2481 48.3413 10.0062C48.3413 9.39328 48.4846 8.7933 48.7744 8.20944C49.0643 7.62559 49.4714 7.12238 50.0022 6.69658C51.1876 5.71274 52.6303 5.2192 54.3368 5.2192L54.3465 5.21275Z" fill="white"/>
<path d="M68.1741 12.1126V15.6512C68.1741 16.0705 68.2783 16.4124 68.4867 16.6769C68.6952 16.9414 68.9622 17.0737 69.2846 17.0737C69.5582 17.0737 69.9229 16.9479 70.3723 16.6963C70.4798 16.635 70.584 16.6027 70.6882 16.6027C70.8576 16.6027 71.0139 16.7027 71.1539 16.906C71.294 17.1092 71.3656 17.3285 71.3656 17.5672C71.3656 17.9995 71.1246 18.4156 70.6459 18.8124C69.6461 19.6575 68.4314 20.0801 67.0082 20.0801C65.8814 20.0801 64.9728 19.7639 64.2922 19.1317C63.6083 18.4995 63.2664 17.6672 63.2664 16.635V11.7964C63.2664 11.6351 63.2468 11.5352 63.2078 11.4964C63.1687 11.4577 63.0677 11.4384 62.9082 11.4384H61.8204C61.6153 11.4384 61.485 11.4061 61.4296 11.3384C61.3743 11.2706 61.345 11.1158 61.345 10.8739V10.4126C61.3515 10.2029 61.4329 10.0513 61.5892 9.95133L66.4318 6.93528C66.5523 6.874 66.6989 6.84174 66.8747 6.84174H67.7312C67.9071 6.84174 68.0243 6.88045 68.0862 6.96109C68.1448 7.04173 68.1774 7.19979 68.1774 7.4385V8.85136C68.1774 9.06103 68.2099 9.19651 68.2783 9.26102C68.3467 9.32554 68.4867 9.35457 68.7082 9.35457H70.6654C70.926 9.35457 71.0953 9.40296 71.1735 9.4965C71.2516 9.59005 71.2907 9.79004 71.2907 10.0997V10.719C71.2907 11.0545 71.2418 11.2868 71.1441 11.4158C71.0465 11.5448 70.8641 11.6093 70.6035 11.6093H68.6887C68.49 11.6093 68.3565 11.6448 68.2881 11.7126C68.2197 11.7803 68.1839 11.9158 68.1839 12.1093L68.1741 12.1126Z" fill="white"/>
<path d="M81.549 15.1092H76.5794C76.3612 15.1092 76.2505 15.2028 76.2505 15.3931C76.2505 15.8479 76.498 16.2737 76.9963 16.6769C77.4945 17.0769 78.0286 17.2801 78.5985 17.2801C78.9372 17.2801 79.3117 17.2156 79.7253 17.0866C80.1389 16.9576 80.4776 16.7995 80.7446 16.6092C80.9856 16.4415 81.1745 16.3576 81.3145 16.3576C81.4969 16.3576 81.676 16.4705 81.8551 16.6931C82.031 16.9156 82.1189 17.1479 82.1189 17.3834C82.1189 17.8866 81.803 18.3704 81.168 18.8382C80.0477 19.6704 78.7548 20.0833 77.2894 20.0833C75.8239 20.0833 74.5668 19.6575 73.567 18.8059C73.0818 18.3866 72.678 17.8801 72.3621 17.2866C71.9452 16.4963 71.7368 15.6673 71.7368 14.7931C71.7368 13.619 72.095 12.5674 72.8148 11.6319C73.4335 10.8223 74.2249 10.2191 75.1823 9.81907C75.902 9.51908 76.6804 9.36747 77.5173 9.36747C78.8558 9.36747 79.9956 9.74488 80.9335 10.4997C81.4057 10.8771 81.7868 11.3223 82.0766 11.8416C82.4088 12.4287 82.5749 12.9996 82.5749 13.5577C82.5749 14.0125 82.4804 14.3835 82.2883 14.6738C82.0994 14.9641 81.8519 15.1092 81.549 15.1092ZM76.8562 13.1512H77.9244C78.3738 13.1512 78.6018 12.9448 78.6018 12.5319C78.6018 12.1545 78.4911 11.848 78.2729 11.6093C78.0547 11.3706 77.7681 11.2545 77.4164 11.2545C77.0223 11.2545 76.7097 11.4094 76.485 11.7158C76.2733 12.0029 76.1691 12.2932 76.1691 12.5835C76.1691 12.7932 76.2212 12.9383 76.3221 13.0222C76.4231 13.1061 76.6022 13.148 76.8562 13.148V13.1512Z" fill="white"/>
<path d="M88.4432 9.42231C88.8731 9.42231 89.1402 9.45779 89.2476 9.53198C89.3518 9.60618 89.4072 9.78682 89.4072 10.0804C89.4072 10.3384 89.4919 10.4674 89.6612 10.4674C89.7329 10.4674 89.9673 10.3352 90.3712 10.0707C90.674 9.86746 91.0616 9.69972 91.5273 9.56424C91.993 9.42876 92.4196 9.36102 92.8006 9.36102C93.6962 9.36102 94.4973 9.66746 95.2007 10.2836C95.7348 10.7513 96.1517 11.3416 96.448 12.0545C96.7574 12.8029 96.9137 13.5867 96.9137 14.4093C96.9137 16.1673 96.3145 17.6188 95.1161 18.7543C94.1944 19.6414 93.1425 20.0833 91.9669 20.0833C91.3677 20.0833 90.7522 19.9446 90.1172 19.664C89.9901 19.6091 89.8892 19.5801 89.811 19.5801C89.5993 19.5801 89.4951 19.7898 89.4951 20.2091C89.4951 20.7607 89.6808 21.1575 90.0553 21.4026C90.4005 21.6316 90.6056 21.7897 90.674 21.8703C90.7424 21.951 90.775 22.0865 90.775 22.2736C90.775 22.6929 90.5373 23.0155 90.0683 23.2413C89.5961 23.4671 88.9285 23.58 88.0687 23.58C86.5381 23.58 85.1996 23.2768 84.0501 22.6703C83.4639 22.3639 83.174 21.9832 83.174 21.5284C83.174 21.3187 83.2164 21.1607 83.3076 21.051C83.3955 20.9413 83.5648 20.8284 83.8188 20.7091C84.1836 20.5413 84.4083 20.2381 84.4897 19.7994C84.5711 19.3607 84.633 18.0963 84.6753 16.0092C84.6265 14.2931 84.5614 13.3286 84.4864 13.119C84.4571 13.048 84.4181 13.0029 84.366 12.9835C84.3138 12.9641 84.138 12.9254 83.8416 12.8674C83.6169 12.8254 83.4346 12.7222 83.2913 12.5577C83.1512 12.3932 83.0796 12.1964 83.0796 11.9674C83.0796 11.6868 83.1773 11.4416 83.3759 11.2287C83.5746 11.0158 83.8937 10.8094 84.3366 10.6061C86.0627 9.83198 87.4337 9.43844 88.4498 9.42231H88.4432ZM89.4886 13.3803L89.329 16.2608C89.3225 16.3802 89.3193 16.4963 89.3193 16.606C89.3193 16.8221 89.4137 16.9963 89.6059 17.1285C89.7947 17.2608 90.0488 17.3285 90.3679 17.3285C91.3416 17.3285 91.8269 16.535 91.8269 14.9512C91.8269 13.9254 91.6217 13.2028 91.2146 12.7835C90.9606 12.5254 90.6577 12.3964 90.306 12.3964C89.8045 12.3964 89.5342 12.7254 89.4919 13.3803H89.4886Z" fill="white"/>
<path d="M0.413591 31.9765V24.5993C0.413591 24.467 0.384281 24.367 0.322406 24.2993C0.26053 24.2316 0.156318 24.1767 0 24.1348V23.9316H4.91099C5.98567 23.9316 6.81285 24.0541 7.38927 24.2961C8.21646 24.6509 8.82544 25.2315 9.22275 26.0476C9.53539 26.6863 9.69496 27.4347 9.69496 28.2895C9.69496 29.7927 9.22927 30.9378 8.29462 31.7249C7.90382 32.0571 7.44464 32.2958 6.92032 32.4378C6.396 32.5797 5.72514 32.6507 4.91424 32.6507H0V32.4475C0.156318 32.4055 0.26053 32.3507 0.322406 32.2829C0.384281 32.2152 0.413591 32.1152 0.413591 31.983V31.9765ZM2.335 31.2088H4.75141C5.52323 31.2088 6.09965 31.1056 6.48719 30.8959C7.31763 30.4475 7.73448 29.5766 7.73448 28.2831C7.73448 27.3476 7.50977 26.6283 7.06361 26.1315C6.81285 25.8541 6.51324 25.6573 6.15827 25.5412C5.80656 25.4251 5.3376 25.367 4.75141 25.367H2.335V31.212V31.2088Z" fill="white"/>
<path d="M13.0559 29.7088V31.9894C13.0559 32.1217 13.0852 32.2217 13.147 32.2926C13.2089 32.3636 13.3164 32.4217 13.4695 32.4668V32.6442H10.9163V32.4668C11.0661 32.4281 11.1735 32.3733 11.2354 32.3023C11.2973 32.2313 11.3299 32.1281 11.3299 31.9959V26.1444C11.3299 26.0122 11.3005 25.9122 11.2387 25.8444C11.1768 25.7767 11.0726 25.7186 10.9163 25.6735V25.496H15.6514C16.2669 25.496 16.7358 25.5283 17.0582 25.5896C17.3807 25.6509 17.6672 25.7638 17.9213 25.9251C18.4423 26.2605 18.7028 26.8121 18.7028 27.5734C18.7028 28.1508 18.5433 28.6056 18.2209 28.9314C17.8985 29.2572 17.3839 29.4927 16.6707 29.6379L18.0385 31.5249C18.2893 31.8733 18.4879 32.1088 18.6345 32.2346C18.781 32.3604 18.9503 32.4378 19.1392 32.4733V32.6507H16.1008V32.4733C16.3255 32.4152 16.4362 32.3184 16.4362 32.1862C16.4362 32.0926 16.3678 31.9507 16.2278 31.7604L14.7851 29.7153H13.0559V29.7088ZM13.0559 28.4121H15.6612C16.0552 28.4121 16.3483 28.3702 16.5372 28.2831C16.8042 28.1669 16.9378 27.9411 16.9378 27.5992C16.9378 27.296 16.8433 27.0863 16.6577 26.967C16.4721 26.8476 16.1399 26.7896 15.6612 26.7896H13.0559V28.4121Z" fill="white"/>
<path d="M22.1484 26.1444V31.9894C22.1484 32.1217 22.1777 32.2217 22.2396 32.2926C22.3015 32.3636 22.4089 32.4217 22.562 32.4668V32.6442H20.0088V32.4668C20.1586 32.4281 20.2661 32.3733 20.3279 32.3023C20.3898 32.2313 20.4224 32.1281 20.4224 31.9959V26.1444C20.4224 26.0122 20.3931 25.9122 20.3312 25.8444C20.2693 25.7767 20.1651 25.7186 20.0088 25.6735V25.496H22.562V25.6735C22.4057 25.7154 22.2982 25.7735 22.2396 25.8412C22.181 25.9089 22.1484 26.0122 22.1484 26.1444Z" fill="white"/>
<path d="M27.5477 30.383L29.2998 26.5992C29.404 26.3831 29.4561 26.2218 29.4561 26.1154C29.4561 25.9025 29.3161 25.7541 29.036 25.6735V25.496H31.8269V25.6735C31.6543 25.7283 31.5306 25.796 31.4524 25.8767C31.3743 25.9573 31.2766 26.1251 31.1561 26.3734L28.6257 31.6443C28.5345 31.8313 28.4889 31.9733 28.4889 32.0733C28.4889 32.2862 28.6322 32.4216 28.9155 32.4765V32.6507H26.0822V32.4765C26.3623 32.4216 26.5023 32.2862 26.5023 32.0733C26.5023 31.9765 26.4568 31.8313 26.3656 31.6443L23.8352 26.3734C23.7147 26.1186 23.617 25.9509 23.5421 25.8735C23.4672 25.796 23.3402 25.7283 23.1643 25.6735V25.496H26.0594V25.6735C25.7859 25.7573 25.6459 25.9057 25.6459 26.1154C25.6459 26.2089 25.7012 26.3702 25.8054 26.5992L27.5445 30.383H27.5477Z" fill="white"/>
<path d="M34.5561 26.1444V31.9894C34.5561 32.1217 34.5854 32.2217 34.6473 32.2926C34.7092 32.3636 34.8166 32.4217 34.9697 32.4668V32.6442H32.4165V32.4668C32.5663 32.4281 32.6738 32.3733 32.7357 32.3023C32.7975 32.2313 32.8301 32.1281 32.8301 31.9959V26.1444C32.8301 26.0122 32.8008 25.9122 32.7389 25.8444C32.677 25.7767 32.5728 25.7186 32.4165 25.6735V25.496H34.9697V25.6735C34.8134 25.7154 34.7059 25.7735 34.6473 25.8412C34.5887 25.9089 34.5561 26.0122 34.5561 26.1444Z" fill="white"/>
<path d="M38.2263 27.9315V31.9894C38.2263 32.1217 38.2589 32.2217 38.3207 32.2958C38.3826 32.3668 38.4901 32.4249 38.6399 32.4668V32.6442H36.2397V32.4668C36.3896 32.4281 36.497 32.3733 36.5589 32.3023C36.6208 32.2313 36.6533 32.1281 36.6533 31.9959V26.1444C36.6533 26.0122 36.624 25.9122 36.5622 25.8444C36.5003 25.7767 36.3961 25.7186 36.2397 25.6735V25.496H39.0144V25.6735C38.8255 25.7218 38.7311 25.8025 38.7311 25.9218C38.7311 26.0251 38.7995 26.1444 38.9362 26.2799L42.8116 30.0862V26.1444C42.8116 26.0122 42.7823 25.9122 42.7204 25.8412C42.6618 25.7702 42.5543 25.7154 42.398 25.6735V25.496H44.7981V25.6735C44.6418 25.7154 44.5344 25.7735 44.4757 25.8412C44.4139 25.9122 44.3846 26.0122 44.3846 26.1444V31.9894C44.3846 32.1217 44.4139 32.2217 44.4757 32.2926C44.5344 32.3636 44.6418 32.4217 44.7981 32.4668V32.6442H42.2124V32.4668C42.4013 32.4281 42.4957 32.3507 42.4957 32.2313C42.4957 32.1733 42.4697 32.112 42.4176 32.0475C42.3655 31.983 42.2482 31.8604 42.0626 31.6733L38.2263 27.9282V27.9315Z" fill="white"/>
<path d="M52.575 29.8862H50.9304C50.7936 29.8862 50.6894 29.9153 50.6178 29.9766C50.5461 30.0346 50.4908 30.1411 50.4484 30.2959H50.2758V28.3992H50.4484C50.4908 28.5508 50.5494 28.6572 50.6178 28.7185C50.6894 28.7798 50.7936 28.8089 50.9304 28.8089H54.3661V28.9927C54.2163 29.0347 54.1089 29.0959 54.047 29.1766C53.9851 29.2572 53.9525 29.3734 53.9525 29.5217V31.0281C53.9525 31.1604 53.9851 31.2636 54.047 31.3346C54.1089 31.4056 54.2163 31.4636 54.3661 31.5055V31.6539C52.9723 32.4152 51.585 32.7958 50.2009 32.7958C49.0057 32.7958 48.0385 32.5152 47.2993 31.9604C46.8987 31.6539 46.5763 31.2765 46.3321 30.8249C46.0455 30.2895 45.8989 29.7153 45.8989 29.1056C45.8989 28.2637 46.1627 27.5121 46.687 26.8573C47.5044 25.8444 48.7126 25.338 50.3116 25.338C51.0118 25.338 51.813 25.4928 52.7118 25.7993C53.07 25.9186 53.2784 25.9767 53.337 25.9767C53.4087 25.9767 53.4966 25.9412 53.5943 25.8735L53.7506 25.9573L52.8909 27.7573L52.7378 27.6799V27.6411C52.7378 27.4831 52.5783 27.3218 52.2624 27.1573C51.6729 26.8476 51.0411 26.6896 50.367 26.6896C49.5887 26.6896 48.9504 26.8992 48.4521 27.3218C47.9278 27.7637 47.6673 28.3605 47.6673 29.1088C47.6673 29.812 47.905 30.3733 48.3837 30.7959C48.8722 31.2249 49.5626 31.441 50.4484 31.441C51.3342 31.441 52.0018 31.2862 52.5815 30.9733V29.8798L52.575 29.8862Z" fill="white"/>
<path d="M67.2199 24.667L66.168 26.7218L65.9889 26.6186C65.9921 26.5767 65.9954 26.5412 65.9954 26.5154C65.9954 26.3702 65.8717 26.2154 65.6209 26.0476C64.8556 25.5186 63.9568 25.2541 62.9244 25.2541C62.4685 25.2541 62.0679 25.309 61.7195 25.4186C61.4654 25.5025 61.2603 25.6315 61.104 25.8025C60.9476 25.9734 60.8695 26.1573 60.8695 26.3573C60.8695 26.6863 61.0681 26.9089 61.4687 27.0283C61.6739 27.0863 62.1168 27.1508 62.7974 27.2186L63.8102 27.3218C64.4127 27.3863 64.8979 27.4734 65.2724 27.5831C65.6437 27.6928 65.9759 27.8476 66.2624 28.0476C66.5555 28.2573 66.7868 28.5314 66.9561 28.8701C67.1255 29.2088 67.2101 29.5733 67.2101 29.9604C67.2101 30.5733 67.0115 31.1185 66.6109 31.5959C66.2494 32.0313 65.6893 32.3507 64.9272 32.5604C64.3606 32.7184 63.7516 32.7958 63.1035 32.7958C61.9377 32.7958 60.7881 32.5184 59.6548 31.9636C59.4138 31.8539 59.2705 31.7991 59.2216 31.7991C59.1663 31.7991 59.0783 31.8475 58.9578 31.941L58.7722 31.8443L59.7264 29.7056L59.912 29.7959V29.8798C59.912 30.0701 60.0032 30.2475 60.1888 30.4088C60.4689 30.6572 60.8988 30.8701 61.485 31.0475C62.0679 31.2249 62.6248 31.3152 63.1491 31.3152C63.7223 31.3152 64.2075 31.2185 64.6146 31.0281C64.8393 30.9217 65.0152 30.7798 65.1487 30.6056C65.2822 30.4282 65.3473 30.2443 65.3473 30.054C65.3473 29.7637 65.191 29.5572 64.8751 29.4346C64.6569 29.3508 64.214 29.2701 63.5464 29.1992L62.5532 29.0959C61.8855 29.0282 61.4166 28.9637 61.1398 28.9024C60.863 28.8411 60.5894 28.7411 60.3159 28.6056C59.9251 28.4153 59.6157 28.125 59.3942 27.7411C59.1923 27.396 59.0914 26.9992 59.0914 26.5509C59.0914 25.8122 59.3486 25.2057 59.8599 24.7219C60.5308 24.0864 61.5371 23.7703 62.8788 23.7703C63.4422 23.7703 63.9665 23.8284 64.4518 23.9413C64.937 24.0542 65.5427 24.2638 66.269 24.567C66.5197 24.667 66.6695 24.7154 66.7281 24.7154C66.8193 24.7154 66.9235 24.667 67.044 24.567L67.2231 24.6638L67.2199 24.667Z" fill="white"/>
<path d="M75.4428 30.0798L76.5338 31.6572L76.384 31.7668C76.2798 31.6959 76.1984 31.6572 76.1397 31.6572C76.0681 31.6572 75.8955 31.7346 75.6317 31.8926C75.0423 32.2346 74.5212 32.47 74.0718 32.6023C73.6191 32.7345 73.1013 32.7991 72.5119 32.7991C71.333 32.7991 70.3723 32.5184 69.6298 31.9636C69.2097 31.6442 68.8742 31.2443 68.6235 30.7636C68.3564 30.2443 68.2229 29.6798 68.2229 29.0701C68.2229 28.2314 68.4671 27.4895 68.9589 26.8476C69.7275 25.8412 70.9096 25.3412 72.4988 25.3412C73.0883 25.3412 73.6126 25.4089 74.0685 25.538C74.5245 25.667 75.0488 25.9057 75.6317 26.2476C75.8988 26.4057 76.0681 26.4831 76.1397 26.4831C76.2016 26.4831 76.283 26.4476 76.384 26.3734L76.5338 26.4896L75.4428 28.054L75.2995 27.9508C75.3028 27.8992 75.3093 27.8669 75.3126 27.854C75.3158 27.8153 75.3191 27.7895 75.3191 27.7702C75.3191 27.5637 75.0292 27.3282 74.4496 27.0637C73.8992 26.8121 73.3456 26.6896 72.7854 26.6896C72.0038 26.6896 71.359 26.8928 70.851 27.3024C70.2713 27.7605 69.9815 28.3508 69.9815 29.0669C69.9815 29.783 70.2713 30.3798 70.851 30.8378C71.3623 31.241 72.0071 31.4443 72.7854 31.4443C73.3944 31.4443 74.0034 31.2926 74.6091 30.9894C75.0813 30.7507 75.3191 30.5411 75.3191 30.3636C75.3191 30.354 75.3126 30.2959 75.2995 30.1862L75.4428 30.0766V30.0798Z" fill="white"/>
<path d="M83.503 29.5282H79.4648V31.9862C79.4648 32.1184 79.4941 32.2184 79.556 32.2894C79.6146 32.3604 79.7221 32.4184 79.8784 32.4636V32.641H77.3252V32.4636C77.475 32.4249 77.5825 32.37 77.6443 32.2991C77.7062 32.2281 77.7388 32.1249 77.7388 31.9926V26.1412C77.7388 26.0089 77.7095 25.9089 77.6476 25.8412C77.589 25.7735 77.4815 25.7154 77.3252 25.6702V25.4928H79.8784V25.6702C79.7221 25.7122 79.6146 25.7702 79.556 25.838C79.4941 25.9089 79.4648 26.0089 79.4648 26.1412V28.2314H83.503V26.1412C83.503 26.0089 83.4737 25.9089 83.4151 25.8412C83.3565 25.7735 83.249 25.7154 83.0894 25.6702V25.4928H85.6426V25.6702C85.4863 25.7122 85.3788 25.7702 85.3202 25.838C85.2583 25.9089 85.229 26.0089 85.229 26.1412V31.9862C85.229 32.1184 85.2583 32.2184 85.3202 32.2894C85.3788 32.3604 85.4863 32.4184 85.6426 32.4636V32.641H83.0894V32.4636C83.2392 32.4249 83.3467 32.37 83.4086 32.2958C83.4704 32.2217 83.503 32.1217 83.503 31.9894V29.525V29.5282Z" fill="white"/>
<path d="M105.56 31.3507H109.605C109.742 31.3507 109.846 31.3217 109.914 31.2636C109.983 31.2056 110.041 31.0991 110.087 30.9443H110.263V33.0571H110.087C110.044 32.9023 109.986 32.7958 109.917 32.7378C109.846 32.6765 109.742 32.6474 109.605 32.6474H103.42V32.47C103.57 32.4313 103.678 32.3765 103.74 32.3055C103.801 32.2346 103.834 32.1313 103.834 31.9991V26.1476C103.834 26.0154 103.805 25.9154 103.743 25.8476C103.684 25.7799 103.577 25.7218 103.42 25.6767V25.4993H105.974V25.6767C105.817 25.7186 105.71 25.7767 105.651 25.8444C105.589 25.9154 105.56 26.0154 105.56 26.1476V31.3539V31.3507Z" fill="white"/>
<path d="M90.3646 32.7668C92.3934 32.7668 94.0381 31.1377 94.0381 29.1282C94.0381 27.1187 92.3934 25.4896 90.3646 25.4896C88.3358 25.4896 86.6912 27.1187 86.6912 29.1282C86.6912 31.1377 88.3358 32.7668 90.3646 32.7668Z" stroke="#231F20" stroke-width="2" stroke-miterlimit="10"/>
<path d="M90.3648 29.854C90.7695 29.854 91.0976 29.529 91.0976 29.1282C91.0976 28.7274 90.7695 28.4024 90.3648 28.4024C89.9601 28.4024 89.6321 28.7274 89.6321 29.1282C89.6321 29.529 89.9601 29.854 90.3648 29.854Z" fill="#231F20" stroke="#231F20" stroke-miterlimit="10"/>
<path d="M90.3647 29.1282V25.4896" stroke="#231F20" stroke-miterlimit="10"/>
<path d="M90.3647 29.1282H94.035" stroke="#231F20" stroke-miterlimit="10"/>
<path d="M90.3647 29.1282V32.7539" stroke="#231F20" stroke-miterlimit="10"/>
<path d="M90.3648 29.1282H86.6946" stroke="#231F20" stroke-miterlimit="10"/>
<path d="M90.3647 29.1282L93.5432 27.3089" stroke="#231F20" stroke-miterlimit="10"/>
<path d="M90.3647 29.1282L92.2015 25.9799" stroke="#231F20" stroke-miterlimit="10"/>
<path d="M93.5432 30.9669L90.3647 29.1508" stroke="#231F20" stroke-miterlimit="10"/>
<path d="M92.2015 32.2765L90.3647 29.1282" stroke="#231F20" stroke-miterlimit="10"/>
<path d="M90.3648 29.1508L87.1831 30.9669" stroke="#231F20" stroke-miterlimit="10"/>
<path d="M90.3648 29.1282L88.5281 32.2765" stroke="#231F20" stroke-miterlimit="10"/>
<path d="M88.489 25.9799L90.3257 29.1282" stroke="#231F20" stroke-miterlimit="10"/>
<path d="M87.1082 27.3089L90.2899 29.1282" stroke="#231F20" stroke-miterlimit="10"/>
<path d="M98.3922 32.7668C100.421 32.7668 102.066 31.1377 102.066 29.1282C102.066 27.1187 100.421 25.4896 98.3922 25.4896C96.3634 25.4896 94.7188 27.1187 94.7188 29.1282C94.7188 31.1377 96.3634 32.7668 98.3922 32.7668Z" stroke="#231F20" stroke-width="2" stroke-miterlimit="10"/>
<path d="M98.3924 29.854C98.7971 29.854 99.1251 29.529 99.1251 29.1282C99.1251 28.7274 98.7971 28.4024 98.3924 28.4024C97.9877 28.4024 97.6597 28.7274 97.6597 29.1282C97.6597 29.529 97.9877 29.854 98.3924 29.854Z" fill="#231F20" stroke="#231F20" stroke-miterlimit="10"/>
<path d="M98.3923 29.1282V25.4896" stroke="#231F20" stroke-miterlimit="10"/>
<path d="M98.3923 29.1282H102.066" stroke="#231F20" stroke-miterlimit="10"/>
<path d="M98.3923 29.1282V32.7539" stroke="#231F20" stroke-miterlimit="10"/>
<path d="M98.3924 29.1282H94.7222" stroke="#231F20" stroke-miterlimit="10"/>
<path d="M98.3923 29.1282L101.571 27.3089" stroke="#231F20" stroke-miterlimit="10"/>
<path d="M98.3923 29.1282L100.229 25.9799" stroke="#231F20" stroke-miterlimit="10"/>
<path d="M101.571 30.9669L98.3923 29.1508" stroke="#231F20" stroke-miterlimit="10"/>
<path d="M100.229 32.2765L98.3923 29.1282" stroke="#231F20" stroke-miterlimit="10"/>
<path d="M98.3923 29.1508L95.2139 30.9669" stroke="#231F20" stroke-miterlimit="10"/>
<path d="M98.3924 29.1282L96.5557 32.2765" stroke="#231F20" stroke-miterlimit="10"/>
<path d="M96.5166 25.9799L98.3533 29.1282" stroke="#231F20" stroke-miterlimit="10"/>
<path d="M95.1357 27.3089L98.3175 29.1282" stroke="#231F20" stroke-miterlimit="10"/>
<path d="M108.403 26.5863V27.8605C108.403 28.1476 108.429 28.3314 108.478 28.4153C108.54 28.5121 108.67 28.5637 108.869 28.5637C109.08 28.5637 109.25 28.5185 109.374 28.425C109.497 28.3314 109.582 28.1895 109.631 27.9927C109.66 27.8734 109.722 27.8121 109.82 27.8121C109.917 27.8121 109.999 27.8573 110.061 27.9444C110.123 28.0315 110.155 28.1476 110.155 28.2863C110.155 28.5153 110.07 28.7605 109.898 29.0217C109.842 29.1056 109.797 29.1605 109.755 29.1927C109.712 29.2217 109.663 29.2379 109.605 29.2379L108.983 29.1637H107.026C106.895 29.1637 106.807 29.1475 106.755 29.1185C106.68 29.0766 106.641 29.0121 106.641 28.9282C106.641 28.8766 106.654 28.8379 106.68 28.8121C106.706 28.7863 106.768 28.7508 106.863 28.7056C106.97 28.6572 107.039 28.5863 107.068 28.496C107.091 28.4218 107.104 28.1992 107.104 27.8347C107.104 27.6637 107.1 27.4186 107.091 27.0992C107.081 26.7928 107.074 26.5605 107.074 26.4057C107.074 26.2573 107.061 26.1573 107.039 26.1025C107.016 26.0476 106.967 26.0089 106.892 25.9831C106.768 25.9412 106.69 25.9057 106.658 25.8799C106.599 25.8347 106.57 25.7799 106.57 25.7218C106.57 25.5864 106.684 25.4831 106.908 25.4154C107.1 25.3541 107.358 25.3251 107.68 25.3251C108.042 25.3251 108.312 25.3444 108.491 25.3799C108.722 25.4315 108.839 25.5283 108.839 25.6799C108.839 25.7412 108.823 25.7864 108.794 25.8154C108.765 25.8444 108.686 25.8831 108.569 25.9347C108.498 25.967 108.452 26.0186 108.436 26.096C108.416 26.1734 108.406 26.338 108.406 26.5928L108.403 26.5863Z" fill="white"/>
<path d="M111.165 25.3735H112.64C112.8 25.367 112.943 25.3477 113.073 25.309C113.128 25.2928 113.177 25.2864 113.223 25.2864C113.373 25.2864 113.523 25.396 113.663 25.6186C113.803 25.8412 113.877 26.0702 113.877 26.3025C113.877 26.4638 113.829 26.5799 113.728 26.6541C113.653 26.7089 113.565 26.7379 113.457 26.7379C113.36 26.7379 113.272 26.7121 113.2 26.6573C113.128 26.6025 113.057 26.5121 112.985 26.3863C112.923 26.2702 112.874 26.196 112.839 26.1605C112.803 26.1251 112.76 26.1089 112.708 26.1089C112.64 26.1089 112.591 26.138 112.559 26.196C112.529 26.2541 112.513 26.3476 112.513 26.4799V28.0347C112.513 28.1927 112.529 28.3089 112.562 28.3798C112.594 28.4508 112.66 28.5089 112.751 28.5476C112.852 28.5895 112.92 28.6314 112.956 28.6669C112.992 28.7056 113.011 28.7572 113.011 28.825C113.011 28.9572 112.92 29.0572 112.738 29.1217C112.555 29.1863 112.275 29.2185 111.897 29.2185C111.435 29.2185 111.09 29.1798 110.868 29.1056C110.679 29.0411 110.585 28.9411 110.585 28.7992C110.585 28.725 110.618 28.6637 110.686 28.6218C110.702 28.6121 110.767 28.5895 110.885 28.554C110.956 28.5347 111.005 28.496 111.031 28.4379C111.057 28.3798 111.08 28.2702 111.096 28.1089C111.113 27.9637 111.126 27.7315 111.139 27.4089C111.152 27.0863 111.158 26.8057 111.158 26.5702C111.158 26.4025 111.145 26.2863 111.119 26.2154C111.093 26.1444 111.051 26.1089 110.989 26.1089C110.917 26.1089 110.846 26.1605 110.777 26.2638C110.653 26.4509 110.549 26.5767 110.468 26.6379C110.373 26.7089 110.279 26.7444 110.191 26.7444C110.09 26.7444 110.009 26.7057 109.94 26.6315C109.875 26.5573 109.843 26.4605 109.843 26.3444C109.843 26.2283 109.869 26.1025 109.921 25.967C109.973 25.8283 110.044 25.7025 110.129 25.5864C110.272 25.3993 110.412 25.3025 110.549 25.3025C110.588 25.3025 110.631 25.309 110.679 25.3186C110.78 25.338 110.862 25.3541 110.927 25.3606C110.992 25.367 111.064 25.3702 111.148 25.3702L111.165 25.3735Z" fill="white"/>
<path d="M115.161 29.1605H114.959C114.841 29.1605 114.711 29.1669 114.565 29.1766C114.473 29.183 114.408 29.1863 114.376 29.1863C114.252 29.1863 114.148 29.1572 114.07 29.0992C113.991 29.0411 113.952 28.9669 113.952 28.8734C113.952 28.8088 113.969 28.7572 114.004 28.7218C114.04 28.6863 114.096 28.6572 114.174 28.6347C114.249 28.6153 114.298 28.5863 114.324 28.5443C114.35 28.5024 114.369 28.4218 114.386 28.3024C114.402 28.1637 114.415 27.8927 114.425 27.4928C114.438 27.0928 114.444 26.6928 114.444 26.296C114.444 26.1412 114.431 26.038 114.408 25.9863C114.382 25.9347 114.327 25.8928 114.239 25.8605C114.109 25.8122 114.047 25.7315 114.047 25.6122C114.047 25.5218 114.092 25.4509 114.18 25.3993C114.268 25.3477 114.392 25.3219 114.552 25.3219C114.604 25.3219 114.666 25.3219 114.737 25.3219C114.894 25.3283 115.008 25.3315 115.079 25.3315C115.346 25.3315 115.649 25.3219 115.985 25.3057C116.056 25.3025 116.144 25.2993 116.252 25.2993C116.678 25.2993 117.017 25.3477 117.264 25.4444C117.636 25.5896 117.912 25.8315 118.098 26.1702C118.264 26.4702 118.349 26.8283 118.349 27.2412C118.349 27.4508 118.32 27.6605 118.258 27.8702C118.196 28.0798 118.114 28.2605 118.01 28.4153C117.792 28.725 117.496 28.9443 117.115 29.0701C116.89 29.1443 116.652 29.1798 116.398 29.1798L116.059 29.1701L115.77 29.1605C115.545 29.154 115.346 29.1508 115.174 29.1508L115.161 29.1605ZM115.75 26.1541V28.3024C115.75 28.4185 115.776 28.5024 115.825 28.5508C115.874 28.5992 115.958 28.625 116.076 28.625C116.62 28.625 116.893 28.2153 116.893 27.3928C116.893 26.9412 116.828 26.5896 116.704 26.338C116.564 26.0638 116.326 25.9251 115.994 25.9251C115.903 25.9251 115.841 25.9412 115.805 25.9767C115.77 26.0122 115.75 26.0702 115.75 26.1541Z" fill="white"/>
<path d="M119.339 27.925C119.515 27.925 119.671 27.9863 119.801 28.1089C119.935 28.2314 120 28.3927 120 28.5895C120 28.7734 119.935 28.9282 119.801 29.054C119.671 29.1766 119.518 29.2379 119.339 29.2379C119.16 29.2379 119.007 29.1766 118.876 29.054C118.743 28.9282 118.678 28.7701 118.678 28.583C118.678 28.396 118.743 28.2347 118.876 28.1121C119.007 27.9927 119.16 27.9315 119.339 27.9282V27.925Z" fill="white"/>
<path d="M41.2679 6.74174C41.092 6.57401 40.9389 6.49014 40.8119 6.49014C40.7403 6.49014 40.6556 6.54497 40.5547 6.65465C40.4537 6.76432 40.4048 6.85142 40.4048 6.91916C40.4048 7.11915 40.5221 7.30624 40.7598 7.48366C40.9976 7.65785 41.2972 7.74817 41.6586 7.74817C41.8312 7.74817 42.0169 7.64172 42.2155 7.42882C42.4142 7.21592 42.5119 6.9869 42.5119 6.74497C42.5119 6.5353 42.4337 6.31272 42.2741 6.07402C42.1146 5.83532 41.6684 5.42243 40.9324 4.83535C40.6165 4.58697 40.3951 4.37729 40.2713 4.20956C40.1476 4.04182 40.0531 3.84828 39.9847 3.63215C39.9164 3.41603 39.8838 3.19991 39.8838 2.98379C39.8838 2.59347 40.0434 2.22897 40.3658 1.89349C40.6882 1.55802 41.079 1.39028 41.5382 1.39028C41.8996 1.39028 42.2188 1.47738 42.4923 1.65157C42.7659 1.82575 42.9027 2.06123 42.9027 2.36445C42.9027 2.6096 42.8082 2.8354 42.6226 3.04507C42.4337 3.25475 42.222 3.36119 41.9843 3.36119C41.7922 3.36119 41.6293 3.26442 41.4958 3.07088C41.3656 2.87734 41.2972 2.69025 41.2972 2.50961C41.2972 2.28381 41.4274 2.17413 41.6847 2.17413C41.7661 2.17413 41.8443 2.18703 41.9127 2.21607C41.9029 2.23219 41.8866 2.258 41.8573 2.29026C41.7075 2.45477 41.6359 2.60315 41.6359 2.73541C41.6359 2.83218 41.7108 2.91282 41.8573 2.97088C42.0071 3.02895 42.1276 3.05798 42.2286 3.05798C42.31 3.05798 42.3849 3.01282 42.45 2.92572C42.5151 2.83863 42.5477 2.75476 42.5477 2.67089C42.5477 2.39348 42.4468 2.1451 42.2416 1.92898C42.0364 1.71285 41.7922 1.59995 41.5088 1.59995C41.2451 1.59995 41.0236 1.69995 40.8477 1.90317C40.6719 2.10639 40.5807 2.31929 40.5807 2.54831C40.5807 3.34507 40.9454 4.01601 41.6814 4.56761C42.4598 5.16437 42.8473 5.74822 42.8473 6.3224C42.8473 6.65787 42.7757 6.94496 42.6356 7.18689C42.4956 7.42882 42.3263 7.62881 42.1276 7.78687C41.9289 7.94493 41.7726 8.03848 41.6586 8.07396C41.5447 8.10945 41.3656 8.12557 41.1213 8.12557C40.8608 8.12557 40.6393 7.99977 40.4537 7.74494C40.2681 7.49333 40.1769 7.22237 40.1769 6.93206C40.1769 6.72561 40.255 6.5353 40.4114 6.37079C40.5677 6.20627 40.7338 6.11918 40.9064 6.11918C41.0301 6.11918 41.1376 6.15144 41.232 6.21595C41.3232 6.28047 41.3721 6.36433 41.3721 6.46111C41.3721 6.5482 41.3362 6.63852 41.2679 6.73529V6.74174Z" fill="white"/>
<path d="M47.2179 1.69027C46.8792 1.75156 46.6023 1.79672 46.3809 1.82253C46.1594 1.84833 45.8403 1.92898 45.4202 2.05801C45.4007 2.31929 45.2769 2.96121 45.0555 3.98053C44.834 5.00308 44.7233 5.69339 44.7233 6.05144C44.7233 6.51594 44.8177 6.874 45.0099 7.12238C45.202 7.37076 45.4723 7.49656 45.8208 7.49656C46.0748 7.49656 46.2734 7.38366 46.4102 7.15786C46.547 6.93206 46.6186 6.63852 46.6186 6.28046C46.6186 6.14176 46.5698 5.99983 46.4688 5.85144C46.3711 5.70306 46.2604 5.6321 46.1399 5.6321C46.0324 5.6321 45.9478 5.68371 45.8794 5.78371C45.8142 5.88693 45.7817 6.00305 45.7817 6.13853C45.7817 6.25789 45.837 6.31595 45.9478 6.31595C46.0585 6.31595 46.1399 6.22885 46.1888 6.05144L46.2637 6.09983C46.2637 6.22563 46.2278 6.33208 46.1562 6.41594C46.0845 6.49981 46.0064 6.54175 45.925 6.54175C45.7882 6.54175 45.6612 6.49659 45.5374 6.40949C45.4169 6.3224 45.3551 6.2095 45.3551 6.07725C45.3551 5.90306 45.4332 5.745 45.5863 5.60952C45.7393 5.47404 45.9054 5.40307 46.0845 5.40307C46.3093 5.40307 46.5372 5.48049 46.7619 5.63532C46.9866 5.79016 47.0974 5.95467 47.0974 6.12563C47.0974 6.51272 46.9769 6.87077 46.7391 7.19979C46.5014 7.52882 46.2246 7.69333 45.9119 7.69333C45.4332 7.69333 45.0522 7.54494 44.7689 7.24818C44.4855 6.95141 44.3423 6.5611 44.3423 6.07725C44.3423 5.83532 44.3911 5.19017 44.4888 4.13537C44.5865 3.08056 44.6288 2.46767 44.6223 2.29671L43.4792 2.61928V2.28381L44.6223 2.0193C44.6288 1.89672 44.6353 1.75479 44.6353 1.59028C44.6353 1.10642 44.5995 0.635466 44.5311 0.177414L45.5928 0C45.6058 0.509663 45.557 1.09997 45.443 1.76769C45.9575 1.60318 46.306 1.50641 46.4884 1.47093C46.6707 1.43544 46.8824 1.38383 47.1234 1.31609L47.2146 1.69027H47.2179Z" fill="white"/>
<path d="M41.0237 6.74174C40.8479 6.57401 40.6948 6.49014 40.5678 6.49014C40.4961 6.49014 40.4115 6.54497 40.3105 6.65465C40.2096 6.76432 40.1607 6.85142 40.1607 6.91916C40.1607 7.11915 40.2779 7.30624 40.5157 7.48366C40.7534 7.65785 41.053 7.74817 41.4145 7.74817C41.5871 7.74817 41.7727 7.64172 41.9714 7.42882C42.17 7.21592 42.2677 6.9869 42.2677 6.74497C42.2677 6.5353 42.1896 6.31272 42.03 6.07402C41.8704 5.83532 41.4243 5.42243 40.6883 4.83535C40.3724 4.58697 40.1509 4.37729 40.0272 4.20956C39.9034 4.04182 39.809 3.84828 39.7406 3.63215C39.6722 3.41603 39.6396 3.19991 39.6396 2.98379C39.6396 2.59347 39.7992 2.22897 40.1216 1.89349C40.444 1.55802 40.8348 1.39028 41.294 1.39028C41.6555 1.39028 41.9746 1.47738 42.2482 1.65157C42.5218 1.82575 42.6585 2.06123 42.6585 2.36445C42.6585 2.6096 42.5641 2.8354 42.3785 3.04507C42.1896 3.25475 41.9779 3.36119 41.7402 3.36119C41.548 3.36119 41.3852 3.26442 41.2517 3.07088C41.1214 2.87734 41.053 2.69025 41.053 2.50961C41.053 2.28381 41.1833 2.17413 41.4406 2.17413C41.522 2.17413 41.6001 2.18703 41.6685 2.21607C41.6588 2.23219 41.6425 2.258 41.6132 2.29026C41.4634 2.45477 41.3917 2.60315 41.3917 2.73541C41.3917 2.83218 41.4666 2.91282 41.6132 2.97088C41.763 3.02895 41.8835 3.05798 41.9844 3.05798C42.0658 3.05798 42.1407 3.01282 42.2059 2.92572C42.271 2.83863 42.3036 2.75476 42.3036 2.67089C42.3036 2.39348 42.2026 2.1451 41.9974 1.92898C41.7923 1.71285 41.548 1.59995 41.2647 1.59995C41.0009 1.59995 40.7795 1.69995 40.6036 1.90317C40.4278 2.10639 40.3366 2.31929 40.3366 2.54831C40.3366 3.34507 40.7013 4.01601 41.4373 4.56761C42.2156 5.16437 42.6032 5.74822 42.6032 6.3224C42.6032 6.65787 42.5315 6.94496 42.3915 7.18689C42.2515 7.42882 42.0821 7.62881 41.8835 7.78687C41.6848 7.94493 41.5285 8.03848 41.4145 8.07396C41.3005 8.10945 41.1214 8.12557 40.8772 8.12557C40.6166 8.12557 40.3952 7.99977 40.2096 7.74494C40.0239 7.49333 39.9327 7.22237 39.9327 6.93206C39.9327 6.72561 40.0109 6.5353 40.1672 6.37079C40.3235 6.20627 40.4896 6.11918 40.6622 6.11918C40.786 6.11918 40.8934 6.15144 40.9879 6.21595C41.0791 6.28047 41.1279 6.36433 41.1279 6.46111C41.1279 6.5482 41.0921 6.63852 41.0237 6.73529V6.74174Z" fill="white"/>
<path d="M46.9703 1.69027C46.6316 1.75156 46.3548 1.79672 46.1333 1.82253C45.9119 1.84833 45.5927 1.92898 45.1726 2.05801C45.1531 2.31929 45.0293 2.96121 44.8079 3.98053C44.5864 5.00308 44.4757 5.69339 44.4757 6.05144C44.4757 6.51594 44.5702 6.874 44.7623 7.12238C44.9544 7.37076 45.2247 7.49656 45.5732 7.49656C45.8272 7.49656 46.0259 7.38366 46.1626 7.15786C46.2994 6.93206 46.3711 6.63852 46.3711 6.28046C46.3711 6.14176 46.3222 5.99983 46.2213 5.85144C46.1236 5.70306 46.0128 5.6321 45.8923 5.6321C45.7849 5.6321 45.7002 5.68371 45.6318 5.78371C45.5667 5.88693 45.5341 6.00305 45.5341 6.13853C45.5341 6.25789 45.5895 6.31595 45.7002 6.31595C45.8109 6.31595 45.8924 6.22885 45.9412 6.05144L46.0161 6.09983C46.0161 6.22563 45.9803 6.33208 45.9086 6.41594C45.837 6.49981 45.7588 6.54175 45.6774 6.54175C45.5406 6.54175 45.4136 6.49659 45.2899 6.40949C45.1694 6.3224 45.1075 6.2095 45.1075 6.07725C45.1075 5.90306 45.1857 5.745 45.3387 5.60952C45.4918 5.47404 45.6579 5.40307 45.837 5.40307C46.0617 5.40307 46.2897 5.48049 46.5144 5.63532C46.7391 5.79016 46.8498 5.95467 46.8498 6.12563C46.8498 6.51272 46.7293 6.87077 46.4916 7.19979C46.2538 7.52882 45.977 7.69333 45.6644 7.69333C45.1857 7.69333 44.8046 7.54494 44.5213 7.24818C44.238 6.95141 44.0947 6.5611 44.0947 6.07725C44.0947 5.83532 44.1435 5.19017 44.2412 4.13537C44.3389 3.08056 44.3813 2.46767 44.3748 2.29671L43.2317 2.61928V2.28381L44.3748 2.0193C44.3813 1.89672 44.3878 1.75479 44.3878 1.59028C44.3878 1.10642 44.352 0.635466 44.2836 0.177414L45.3452 0C45.3583 0.509663 45.3094 1.09997 45.1954 1.76769C45.71 1.60318 46.0584 1.50641 46.2408 1.47093C46.4232 1.43544 46.6349 1.38383 46.8759 1.31609L46.967 1.69027H46.9703Z" fill="white"/>
<path d="M41.0237 6.74174C40.8479 6.57401 40.6948 6.49014 40.5678 6.49014C40.4961 6.49014 40.4115 6.54497 40.3105 6.65465C40.2096 6.76432 40.1607 6.85142 40.1607 6.91916C40.1607 7.11915 40.2779 7.30624 40.5157 7.48366C40.7534 7.65785 41.053 7.74817 41.4145 7.74817C41.5871 7.74817 41.7727 7.64172 41.9714 7.42882C42.17 7.21592 42.2677 6.9869 42.2677 6.74497C42.2677 6.5353 42.1896 6.31272 42.03 6.07402C41.8704 5.83532 41.4243 5.42243 40.6883 4.83535C40.3724 4.58697 40.1509 4.37729 40.0272 4.20956C39.9034 4.04182 39.809 3.84828 39.7406 3.63215C39.6722 3.41603 39.6396 3.19991 39.6396 2.98379C39.6396 2.59347 39.7992 2.22897 40.1216 1.89349C40.444 1.55802 40.8348 1.39028 41.294 1.39028C41.6555 1.39028 41.9746 1.47738 42.2482 1.65157C42.5218 1.82575 42.6585 2.06123 42.6585 2.36445C42.6585 2.6096 42.5641 2.8354 42.3785 3.04507C42.1896 3.25475 41.9779 3.36119 41.7402 3.36119C41.548 3.36119 41.3852 3.26442 41.2517 3.07088C41.1214 2.87734 41.053 2.69025 41.053 2.50961C41.053 2.28381 41.1833 2.17413 41.4406 2.17413C41.522 2.17413 41.6001 2.18703 41.6685 2.21607C41.6588 2.23219 41.6425 2.258 41.6132 2.29026C41.4634 2.45477 41.3917 2.60315 41.3917 2.73541C41.3917 2.83218 41.4666 2.91282 41.6132 2.97088C41.763 3.02895 41.8835 3.05798 41.9844 3.05798C42.0658 3.05798 42.1407 3.01282 42.2059 2.92572C42.271 2.83863 42.3036 2.75476 42.3036 2.67089C42.3036 2.39348 42.2026 2.1451 41.9974 1.92898C41.7923 1.71285 41.548 1.59995 41.2647 1.59995C41.0009 1.59995 40.7795 1.69995 40.6036 1.90317C40.4278 2.10639 40.3366 2.31929 40.3366 2.54831C40.3366 3.34507 40.7013 4.01601 41.4373 4.56761C42.2156 5.16437 42.6032 5.74822 42.6032 6.3224C42.6032 6.65787 42.5315 6.94496 42.3915 7.18689C42.2515 7.42882 42.0821 7.62881 41.8835 7.78687C41.6848 7.94493 41.5285 8.03848 41.4145 8.07396C41.3005 8.10945 41.1214 8.12557 40.8772 8.12557C40.6166 8.12557 40.3952 7.99977 40.2096 7.74494C40.0239 7.49333 39.9327 7.22237 39.9327 6.93206C39.9327 6.72561 40.0109 6.5353 40.1672 6.37079C40.3235 6.20627 40.4896 6.11918 40.6622 6.11918C40.786 6.11918 40.8934 6.15144 40.9879 6.21595C41.0791 6.28047 41.1279 6.36433 41.1279 6.46111C41.1279 6.5482 41.0921 6.63852 41.0237 6.73529V6.74174Z" fill="white"/>
<path d="M46.9703 1.69027C46.6316 1.75156 46.3548 1.79672 46.1333 1.82253C45.9119 1.84833 45.5927 1.92898 45.1726 2.05801C45.1531 2.31929 45.0293 2.96121 44.8079 3.98053C44.5864 5.00308 44.4757 5.69339 44.4757 6.05144C44.4757 6.51594 44.5702 6.874 44.7623 7.12238C44.9544 7.37076 45.2247 7.49656 45.5732 7.49656C45.8272 7.49656 46.0259 7.38366 46.1626 7.15786C46.2994 6.93206 46.3711 6.63852 46.3711 6.28046C46.3711 6.14176 46.3222 5.99983 46.2213 5.85144C46.1236 5.70306 46.0128 5.6321 45.8923 5.6321C45.7849 5.6321 45.7002 5.68371 45.6318 5.78371C45.5667 5.88693 45.5341 6.00305 45.5341 6.13853C45.5341 6.25789 45.5895 6.31595 45.7002 6.31595C45.8109 6.31595 45.8924 6.22885 45.9412 6.05144L46.0161 6.09983C46.0161 6.22563 45.9803 6.33208 45.9086 6.41594C45.837 6.49981 45.7588 6.54175 45.6774 6.54175C45.5406 6.54175 45.4136 6.49659 45.2899 6.40949C45.1694 6.3224 45.1075 6.2095 45.1075 6.07725C45.1075 5.90306 45.1857 5.745 45.3387 5.60952C45.4918 5.47404 45.6579 5.40307 45.837 5.40307C46.0617 5.40307 46.2897 5.48049 46.5144 5.63532C46.7391 5.79016 46.8498 5.95467 46.8498 6.12563C46.8498 6.51272 46.7293 6.87077 46.4916 7.19979C46.2538 7.52882 45.977 7.69333 45.6644 7.69333C45.1857 7.69333 44.8046 7.54494 44.5213 7.24818C44.238 6.95141 44.0947 6.5611 44.0947 6.07725C44.0947 5.83532 44.1435 5.19017 44.2412 4.13537C44.3389 3.08056 44.3813 2.46767 44.3748 2.29671L43.2317 2.61928V2.28381L44.3748 2.0193C44.3813 1.89672 44.3878 1.75479 44.3878 1.59028C44.3878 1.10642 44.352 0.635466 44.2836 0.177414L45.3452 0C45.3583 0.509663 45.3094 1.09997 45.1954 1.76769C45.71 1.60318 46.0584 1.50641 46.2408 1.47093C46.4232 1.43544 46.6349 1.38383 46.8759 1.31609L46.967 1.69027H46.9703Z" fill="white"/>
<path d="M41.3494 6.74174C41.1735 6.57401 41.0205 6.49014 40.8935 6.49014C40.8218 6.49014 40.7372 6.54497 40.6362 6.65465C40.5352 6.76432 40.4864 6.85142 40.4864 6.91916C40.4864 7.11915 40.6036 7.30624 40.8414 7.48366C41.0791 7.65785 41.3787 7.74817 41.7402 7.74817C41.9128 7.74817 42.0984 7.64172 42.2971 7.42882C42.4957 7.21592 42.5934 6.9869 42.5934 6.74497C42.5934 6.5353 42.5153 6.31272 42.3557 6.07402C42.1961 5.83532 41.75 5.42243 41.014 4.83535C40.6981 4.58697 40.4766 4.37729 40.3529 4.20956C40.2291 4.04182 40.1347 3.84828 40.0663 3.63215C39.9979 3.41603 39.9653 3.19991 39.9653 2.98379C39.9653 2.59347 40.1249 2.22897 40.4473 1.89349C40.7697 1.55802 41.1605 1.39028 41.6197 1.39028C41.9812 1.39028 42.3003 1.47738 42.5739 1.65157C42.8474 1.82575 42.9842 2.06123 42.9842 2.36445C42.9842 2.6096 42.8898 2.8354 42.7042 3.04507C42.5153 3.25475 42.3036 3.36119 42.0659 3.36119C41.8737 3.36119 41.7109 3.26442 41.5774 3.07088C41.4471 2.87734 41.3787 2.69025 41.3787 2.50961C41.3787 2.28381 41.509 2.17413 41.7662 2.17413C41.8477 2.17413 41.9258 2.18703 41.9942 2.21607C41.9844 2.23219 41.9682 2.258 41.9388 2.29026C41.789 2.45477 41.7174 2.60315 41.7174 2.73541C41.7174 2.83218 41.7923 2.91282 41.9388 2.97088C42.0886 3.02895 42.2091 3.05798 42.3101 3.05798C42.3915 3.05798 42.4664 3.01282 42.5316 2.92572C42.5967 2.83863 42.6292 2.75476 42.6292 2.67089C42.6292 2.39348 42.5283 2.1451 42.3231 1.92898C42.118 1.71285 41.8737 1.59995 41.5904 1.59995C41.3266 1.59995 41.1051 1.69995 40.9293 1.90317C40.7534 2.10639 40.6622 2.31929 40.6622 2.54831C40.6622 3.34507 41.027 4.01601 41.763 4.56761C42.5413 5.16437 42.9289 5.74822 42.9289 6.3224C42.9289 6.65787 42.8572 6.94496 42.7172 7.18689C42.5771 7.42882 42.4078 7.62881 42.2091 7.78687C42.0105 7.94493 41.8542 8.03848 41.7402 8.07396C41.6262 8.10945 41.4471 8.12557 41.2028 8.12557C40.9423 8.12557 40.7209 7.99977 40.5352 7.74494C40.3496 7.49333 40.2584 7.22237 40.2584 6.93206C40.2584 6.72561 40.3366 6.5353 40.4929 6.37079C40.6492 6.20627 40.8153 6.11918 40.9879 6.11918C41.1117 6.11918 41.2191 6.15144 41.3136 6.21595C41.4048 6.28047 41.4536 6.36433 41.4536 6.46111C41.4536 6.5482 41.4178 6.63852 41.3494 6.73529V6.74174Z" fill="white"/>
<path d="M47.296 1.69027C46.9573 1.75156 46.6805 1.79672 46.459 1.82253C46.2376 1.84833 45.9184 1.92898 45.4983 2.05801C45.4788 2.31929 45.355 2.96121 45.1336 3.98053C44.9121 5.00308 44.8014 5.69339 44.8014 6.05144C44.8014 6.51594 44.8958 6.874 45.088 7.12238C45.2801 7.37076 45.5504 7.49656 45.8989 7.49656C46.1529 7.49656 46.3516 7.38366 46.4883 7.15786C46.6251 6.93206 46.6968 6.63852 46.6968 6.28046C46.6968 6.14176 46.6479 5.99983 46.5469 5.85144C46.4493 5.70306 46.3385 5.6321 46.218 5.6321C46.1106 5.6321 46.0259 5.68371 45.9575 5.78371C45.8924 5.88693 45.8598 6.00305 45.8598 6.13853C45.8598 6.25789 45.9152 6.31595 46.0259 6.31595C46.1366 6.31595 46.218 6.22885 46.2669 6.05144L46.3418 6.09983C46.3418 6.22563 46.306 6.33208 46.2343 6.41594C46.1627 6.49981 46.0845 6.54175 46.0031 6.54175C45.8663 6.54175 45.7393 6.49659 45.6156 6.40949C45.4951 6.3224 45.4332 6.2095 45.4332 6.07725C45.4332 5.90306 45.5113 5.745 45.6644 5.60952C45.8175 5.47404 45.9836 5.40307 46.1627 5.40307C46.3874 5.40307 46.6153 5.48049 46.84 5.63532C47.0648 5.79016 47.1755 5.95467 47.1755 6.12563C47.1755 6.51272 47.055 6.87077 46.8172 7.19979C46.5795 7.52882 46.3027 7.69333 45.9901 7.69333C45.5113 7.69333 45.1303 7.54494 44.847 7.24818C44.5637 6.95141 44.4204 6.5611 44.4204 6.07725C44.4204 5.83532 44.4692 5.19017 44.5669 4.13537C44.6646 3.08056 44.707 2.46767 44.7004 2.29671L43.5574 2.61928V2.28381L44.7004 2.0193C44.707 1.89672 44.7135 1.75479 44.7135 1.59028C44.7135 1.10642 44.6776 0.635466 44.6093 0.177414L45.6709 0C45.6839 0.509663 45.6351 1.09997 45.5211 1.76769C46.0357 1.60318 46.3841 1.50641 46.5665 1.47093C46.7489 1.43544 46.9605 1.38383 47.2015 1.31609L47.2927 1.69027H47.296Z" fill="white"/>
<path d="M41.3494 6.74174C41.1735 6.57401 41.0205 6.49014 40.8935 6.49014C40.8218 6.49014 40.7372 6.54497 40.6362 6.65465C40.5352 6.76432 40.4864 6.85142 40.4864 6.91916C40.4864 7.11915 40.6036 7.30624 40.8414 7.48366C41.0791 7.65785 41.3787 7.74817 41.7402 7.74817C41.9128 7.74817 42.0984 7.64172 42.2971 7.42882C42.4957 7.21592 42.5934 6.9869 42.5934 6.74497C42.5934 6.5353 42.5153 6.31272 42.3557 6.07402C42.1961 5.83532 41.75 5.42243 41.014 4.83535C40.6981 4.58697 40.4766 4.37729 40.3529 4.20956C40.2291 4.04182 40.1347 3.84828 40.0663 3.63215C39.9979 3.41603 39.9653 3.19991 39.9653 2.98379C39.9653 2.59347 40.1249 2.22897 40.4473 1.89349C40.7697 1.55802 41.1605 1.39028 41.6197 1.39028C41.9812 1.39028 42.3003 1.47738 42.5739 1.65157C42.8474 1.82575 42.9842 2.06123 42.9842 2.36445C42.9842 2.6096 42.8898 2.8354 42.7042 3.04507C42.5153 3.25475 42.3036 3.36119 42.0659 3.36119C41.8737 3.36119 41.7109 3.26442 41.5774 3.07088C41.4471 2.87734 41.3787 2.69025 41.3787 2.50961C41.3787 2.28381 41.509 2.17413 41.7662 2.17413C41.8477 2.17413 41.9258 2.18703 41.9942 2.21607C41.9844 2.23219 41.9682 2.258 41.9388 2.29026C41.789 2.45477 41.7174 2.60315 41.7174 2.73541C41.7174 2.83218 41.7923 2.91282 41.9388 2.97088C42.0886 3.02895 42.2091 3.05798 42.3101 3.05798C42.3915 3.05798 42.4664 3.01282 42.5316 2.92572C42.5967 2.83863 42.6292 2.75476 42.6292 2.67089C42.6292 2.39348 42.5283 2.1451 42.3231 1.92898C42.118 1.71285 41.8737 1.59995 41.5904 1.59995C41.3266 1.59995 41.1051 1.69995 40.9293 1.90317C40.7534 2.10639 40.6622 2.31929 40.6622 2.54831C40.6622 3.34507 41.027 4.01601 41.763 4.56761C42.5413 5.16437 42.9289 5.74822 42.9289 6.3224C42.9289 6.65787 42.8572 6.94496 42.7172 7.18689C42.5771 7.42882 42.4078 7.62881 42.2091 7.78687C42.0105 7.94493 41.8542 8.03848 41.7402 8.07396C41.6262 8.10945 41.4471 8.12557 41.2028 8.12557C40.9423 8.12557 40.7209 7.99977 40.5352 7.74494C40.3496 7.49333 40.2584 7.22237 40.2584 6.93206C40.2584 6.72561 40.3366 6.5353 40.4929 6.37079C40.6492 6.20627 40.8153 6.11918 40.9879 6.11918C41.1117 6.11918 41.2191 6.15144 41.3136 6.21595C41.4048 6.28047 41.4536 6.36433 41.4536 6.46111C41.4536 6.5482 41.4178 6.63852 41.3494 6.73529V6.74174Z" fill="white"/>
<path d="M47.296 1.69027C46.9573 1.75156 46.6805 1.79672 46.459 1.82253C46.2376 1.84833 45.9184 1.92898 45.4983 2.05801C45.4788 2.31929 45.355 2.96121 45.1336 3.98053C44.9121 5.00308 44.8014 5.69339 44.8014 6.05144C44.8014 6.51594 44.8958 6.874 45.088 7.12238C45.2801 7.37076 45.5504 7.49656 45.8989 7.49656C46.1529 7.49656 46.3516 7.38366 46.4883 7.15786C46.6251 6.93206 46.6968 6.63852 46.6968 6.28046C46.6968 6.14176 46.6479 5.99983 46.5469 5.85144C46.4493 5.70306 46.3385 5.6321 46.218 5.6321C46.1106 5.6321 46.0259 5.68371 45.9575 5.78371C45.8924 5.88693 45.8598 6.00305 45.8598 6.13853C45.8598 6.25789 45.9152 6.31595 46.0259 6.31595C46.1366 6.31595 46.218 6.22885 46.2669 6.05144L46.3418 6.09983C46.3418 6.22563 46.306 6.33208 46.2343 6.41594C46.1627 6.49981 46.0845 6.54175 46.0031 6.54175C45.8663 6.54175 45.7393 6.49659 45.6156 6.40949C45.4951 6.3224 45.4332 6.2095 45.4332 6.07725C45.4332 5.90306 45.5113 5.745 45.6644 5.60952C45.8175 5.47404 45.9836 5.40307 46.1627 5.40307C46.3874 5.40307 46.6153 5.48049 46.84 5.63532C47.0648 5.79016 47.1755 5.95467 47.1755 6.12563C47.1755 6.51272 47.055 6.87077 46.8172 7.19979C46.5795 7.52882 46.3027 7.69333 45.9901 7.69333C45.5113 7.69333 45.1303 7.54494 44.847 7.24818C44.5637 6.95141 44.4204 6.5611 44.4204 6.07725C44.4204 5.83532 44.4692 5.19017 44.5669 4.13537C44.6646 3.08056 44.707 2.46767 44.7004 2.29671L43.5574 2.61928V2.28381L44.7004 2.0193C44.707 1.89672 44.7135 1.75479 44.7135 1.59028C44.7135 1.10642 44.6776 0.635466 44.6093 0.177414L45.6709 0C45.6839 0.509663 45.6351 1.09997 45.5211 1.76769C46.0357 1.60318 46.3841 1.50641 46.5665 1.47093C46.7489 1.43544 46.9605 1.38383 47.2015 1.31609L47.2927 1.69027H47.296Z" fill="white"/>
<path d="M41.3494 6.74174C41.1735 6.57401 41.0205 6.49014 40.8935 6.49014C40.8218 6.49014 40.7372 6.54497 40.6362 6.65465C40.5352 6.76432 40.4864 6.85142 40.4864 6.91916C40.4864 7.11915 40.6036 7.30624 40.8414 7.48366C41.0791 7.65785 41.3787 7.74817 41.7402 7.74817C41.9128 7.74817 42.0984 7.64172 42.2971 7.42882C42.4957 7.21592 42.5934 6.9869 42.5934 6.74497C42.5934 6.5353 42.5153 6.31272 42.3557 6.07402C42.1961 5.83532 41.75 5.42243 41.014 4.83535C40.6981 4.58697 40.4766 4.37729 40.3529 4.20956C40.2291 4.04182 40.1347 3.84828 40.0663 3.63215C39.9979 3.41603 39.9653 3.19991 39.9653 2.98379C39.9653 2.59347 40.1249 2.22897 40.4473 1.89349C40.7697 1.55802 41.1605 1.39028 41.6197 1.39028C41.9812 1.39028 42.3003 1.47738 42.5739 1.65157C42.8474 1.82575 42.9842 2.06123 42.9842 2.36445C42.9842 2.6096 42.8898 2.8354 42.7042 3.04507C42.5153 3.25475 42.3036 3.36119 42.0659 3.36119C41.8737 3.36119 41.7109 3.26442 41.5774 3.07088C41.4471 2.87734 41.3787 2.69025 41.3787 2.50961C41.3787 2.28381 41.509 2.17413 41.7662 2.17413C41.8477 2.17413 41.9258 2.18703 41.9942 2.21607C41.9844 2.23219 41.9682 2.258 41.9388 2.29026C41.789 2.45477 41.7174 2.60315 41.7174 2.73541C41.7174 2.83218 41.7923 2.91282 41.9388 2.97088C42.0886 3.02895 42.2091 3.05798 42.3101 3.05798C42.3915 3.05798 42.4664 3.01282 42.5316 2.92572C42.5967 2.83863 42.6292 2.75476 42.6292 2.67089C42.6292 2.39348 42.5283 2.1451 42.3231 1.92898C42.118 1.71285 41.8737 1.59995 41.5904 1.59995C41.3266 1.59995 41.1051 1.69995 40.9293 1.90317C40.7534 2.10639 40.6622 2.31929 40.6622 2.54831C40.6622 3.34507 41.027 4.01601 41.763 4.56761C42.5413 5.16437 42.9289 5.74822 42.9289 6.3224C42.9289 6.65787 42.8572 6.94496 42.7172 7.18689C42.5771 7.42882 42.4078 7.62881 42.2091 7.78687C42.0105 7.94493 41.8542 8.03848 41.7402 8.07396C41.6262 8.10945 41.4471 8.12557 41.2028 8.12557C40.9423 8.12557 40.7209 7.99977 40.5352 7.74494C40.3496 7.49333 40.2584 7.22237 40.2584 6.93206C40.2584 6.72561 40.3366 6.5353 40.4929 6.37079C40.6492 6.20627 40.8153 6.11918 40.9879 6.11918C41.1117 6.11918 41.2191 6.15144 41.3136 6.21595C41.4048 6.28047 41.4536 6.36433 41.4536 6.46111C41.4536 6.5482 41.4178 6.63852 41.3494 6.73529V6.74174Z" fill="white"/>
<path d="M47.296 1.69027C46.9573 1.75156 46.6805 1.79672 46.459 1.82253C46.2376 1.84833 45.9184 1.92898 45.4983 2.05801C45.4788 2.31929 45.355 2.96121 45.1336 3.98053C44.9121 5.00308 44.8014 5.69339 44.8014 6.05144C44.8014 6.51594 44.8958 6.874 45.088 7.12238C45.2801 7.37076 45.5504 7.49656 45.8989 7.49656C46.1529 7.49656 46.3516 7.38366 46.4883 7.15786C46.6251 6.93206 46.6968 6.63852 46.6968 6.28046C46.6968 6.14176 46.6479 5.99983 46.5469 5.85144C46.4493 5.70306 46.3385 5.6321 46.218 5.6321C46.1106 5.6321 46.0259 5.68371 45.9575 5.78371C45.8924 5.88693 45.8598 6.00305 45.8598 6.13853C45.8598 6.25789 45.9152 6.31595 46.0259 6.31595C46.1366 6.31595 46.218 6.22885 46.2669 6.05144L46.3418 6.09983C46.3418 6.22563 46.306 6.33208 46.2343 6.41594C46.1627 6.49981 46.0845 6.54175 46.0031 6.54175C45.8663 6.54175 45.7393 6.49659 45.6156 6.40949C45.4951 6.3224 45.4332 6.2095 45.4332 6.07725C45.4332 5.90306 45.5113 5.745 45.6644 5.60952C45.8175 5.47404 45.9836 5.40307 46.1627 5.40307C46.3874 5.40307 46.6153 5.48049 46.84 5.63532C47.0648 5.79016 47.1755 5.95467 47.1755 6.12563C47.1755 6.51272 47.055 6.87077 46.8172 7.19979C46.5795 7.52882 46.3027 7.69333 45.9901 7.69333C45.5113 7.69333 45.1303 7.54494 44.847 7.24818C44.5637 6.95141 44.4204 6.5611 44.4204 6.07725C44.4204 5.83532 44.4692 5.19017 44.5669 4.13537C44.6646 3.08056 44.707 2.46767 44.7004 2.29671L43.5574 2.61928V2.28381L44.7004 2.0193C44.707 1.89672 44.7135 1.75479 44.7135 1.59028C44.7135 1.10642 44.6776 0.635466 44.6093 0.177414L45.6709 0C45.6839 0.509663 45.6351 1.09997 45.5211 1.76769C46.0357 1.60318 46.3841 1.50641 46.5665 1.47093C46.7489 1.43544 46.9605 1.38383 47.2015 1.31609L47.2927 1.69027H47.296Z" fill="white"/>
</g>
<defs>
<clipPath id="clip0_77_432">
<rect width="120" height="33.0539" fill="white"/>
</clipPath>
</defs>
</svg>
