<svg width="60" height="49" viewBox="0 0 60 49" fill="none" xmlns="http://www.w3.org/2000/svg">
<path d="M51 18.5605H49.5L39.3019 5.70783C38.7396 4.9995 38.0266 4.42768 37.2155 4.0347C36.4044 3.64171 35.5161 3.43761 34.6162 3.4375H14.5622C12.1088 3.4375 9.90281 4.94318 8.99156 7.23998L4.5 18.7741C1.91625 19.4489 0 21.7939 0 24.6096V35.1957C0 36.0312 0.67125 36.708 1.5 36.708H6C6 41.7194 10.0294 45.7818 15 45.7818C19.9706 45.7818 24 41.7194 24 36.708H36C36 41.7194 40.0294 45.7818 45 45.7818C49.9706 45.7818 54 41.7194 54 36.708H58.5C59.3288 36.708 60 36.0312 60 35.1957V27.6342C60 22.6229 55.9706 18.5605 51 18.5605ZM15 41.2449C12.5184 41.2449 10.5 39.2099 10.5 36.708C10.5 34.2061 12.5184 32.1711 15 32.1711C17.4816 32.1711 19.5 34.2061 19.5 36.708C19.5 39.2099 17.4816 41.2449 15 41.2449ZM21.75 18.5605H10.9622L14.5622 9.48668H21.75V18.5605ZM26.25 18.5605V9.48668H34.6162L41.8162 18.5605H26.25ZM45 41.2449C42.5184 41.2449 40.5 39.2099 40.5 36.708C40.5 34.2061 42.5184 32.1711 45 32.1711C47.4816 32.1711 49.5 34.2061 49.5 36.708C49.5 39.2099 47.4816 41.2449 45 41.2449Z" fill="#A84264"/>
</svg>
