<svg width="45" height="46" viewBox="0 0 45 46" fill="none" xmlns="http://www.w3.org/2000/svg">
<g clip-path="url(#clip0_78_603)">
<path d="M31.707 0.86084L44.6243 13.7781V32.0481L31.707 44.9653H13.437L0.519775 32.0481V13.7781L13.437 0.86084H31.707Z" stroke="#A84264" stroke-width="3" stroke-miterlimit="10"/>
<path d="M30.9443 2.52588L42.8873 14.4689V31.3574L30.9443 43.3004H14.0558L2.11279 31.3574V14.4689L14.0558 2.52588H30.9443Z" fill="#A84264" stroke="#A84264" stroke-width="3" stroke-miterlimit="10"/>
<path d="M4.50425 24.3788L6.50509 24.1437C6.73048 25.7197 7.4683 26.5077 8.71643 26.5077C9.33518 26.5077 9.8221 26.3467 10.1772 26.0247C10.5323 25.7027 10.7088 25.3024 10.7088 24.8258C10.7088 24.5462 10.6471 24.3068 10.5238 24.1119C10.4005 23.9149 10.2112 23.7539 9.95818 23.6289C9.70515 23.5018 9.09066 23.2921 8.11682 22.9956C7.24504 22.7329 6.60503 22.4469 6.20103 22.1398C5.79491 21.8326 5.47384 21.4259 5.23357 20.926C4.9933 20.424 4.87423 19.8859 4.87423 19.3076C4.87423 18.6361 5.02732 18.0303 5.33351 17.4922C5.63969 16.9542 6.06282 16.5475 6.60503 16.2742C7.1451 15.9989 7.81276 15.8633 8.60586 15.8633C9.79871 15.8633 10.73 16.1853 11.3998 16.8313C12.0696 17.4753 12.4247 18.3989 12.463 19.5978L10.4111 19.708C10.3218 19.0471 10.1262 18.5832 9.82848 18.3205C9.5308 18.0578 9.10554 17.9244 8.55271 17.9244C7.99987 17.9244 7.57674 18.0388 7.27693 18.2675C6.97713 18.4963 6.83041 18.7823 6.83041 19.1233C6.83041 19.4644 6.96649 19.7419 7.23653 19.9706C7.50657 20.1994 8.12957 20.4515 9.10341 20.7269C10.1325 21.0234 10.8767 21.3369 11.336 21.6653C11.7953 21.9936 12.144 22.4173 12.3864 22.9341C12.6288 23.4531 12.75 24.0823 12.75 24.8215C12.75 25.8913 12.4183 26.7916 11.757 27.5202C11.0957 28.2489 10.0624 28.6133 8.65477 28.6133C6.16701 28.6133 4.7828 27.2025 4.5 24.3831L4.50425 24.3788Z" fill="white"/>
<path d="M16.585 28.6133V18.0208H13.5V15.8633H21.75V18.0208H18.6737V28.6133H16.5829H16.585Z" fill="white"/>
<path d="M22.5 22.3145C22.5 20.8447 22.7169 19.6353 23.1486 18.6865C23.5803 17.7355 24.1447 17.0281 24.8417 16.5622C25.5387 16.0963 26.3832 15.8633 27.375 15.8633C28.8133 15.8633 29.9841 16.4161 30.8917 17.5195C31.7972 18.6251 32.25 20.1966 32.25 22.2383C32.25 24.28 31.7699 25.9129 30.8117 27.0735C29.9694 28.0986 28.8259 28.6133 27.3834 28.6133C25.9409 28.6133 24.7806 28.1071 23.9383 27.0905C22.9801 25.9299 22.5 24.3372 22.5 22.3145ZM24.5911 22.2298C24.5911 23.6488 24.8585 24.712 25.3955 25.4215C25.9304 26.1311 26.5958 26.4848 27.3876 26.4848C28.1794 26.4848 28.847 26.1332 29.3713 25.43C29.8957 24.7269 30.1589 23.6467 30.1589 22.1875C30.1589 20.7282 29.9041 19.701 29.3924 19.0169C28.8807 18.3328 28.2131 17.9918 27.3876 17.9918C26.5621 17.9918 25.8883 18.337 25.3702 19.0254C24.8501 19.7158 24.5911 20.7833 24.5911 22.2298Z" fill="white"/>
<path d="M33.75 28.6111V15.8633H36.9259C38.1089 15.8633 38.8819 15.9246 39.2469 16.045C39.8271 16.2421 40.3069 16.6626 40.6841 17.3065C41.0614 17.9503 41.25 18.7781 41.25 19.7943C41.25 20.7163 41.088 21.4893 40.762 22.1113C40.436 22.7354 40.0301 23.1734 39.54 23.4252C39.0521 23.6771 38.2094 23.8041 37.0161 23.8041H35.7224V28.6133H33.752L33.75 28.6111ZM35.7203 18.0204V21.647H36.8131C37.5472 21.647 38.0474 21.5922 38.3099 21.4806C38.5744 21.3711 38.7896 21.1718 38.9578 20.8827C39.1259 20.5958 39.2099 20.241 39.2099 19.8227C39.2099 19.4045 39.1238 19.0409 38.9496 18.7497C38.7753 18.4584 38.56 18.2635 38.3058 18.1649C38.0515 18.0664 37.5082 18.016 36.6819 18.016H35.7183L35.7203 18.0204Z" fill="white"/>
</g>
<defs>
<clipPath id="clip0_78_603">
<rect width="45" height="45" fill="white" transform="translate(0 0.413086)"/>
</clipPath>
</defs>
</svg>
